  0
SECTION
  2
HEADER
  9
$ACADVER
  1
AC1009
  9
$DWGCODEPAGE
  3
ansi_1252
  9
$INSBASE
 10
0.0
 20
0.0
 30
0.0
  9
$EXTMIN
 10
79.98927614
 20
80.02346454
 30
0.0
  9
$EXTMAX
 10
120.01072518
 20
120.01072518
 30
0.0
  9
$LIMMIN
 10
0.0
 20
0.0
  9
$LIMMAX
 10
420.0
 20
297.0
  9
$ORTHOMODE
 70
     0
  9
$REGENMODE
 70
     1
  9
$FILLMODE
 70
     1
  9
$QTEXTMODE
 70
     0
  9
$MIRRTEXT
 70
     1
  9
$DRAGMODE
 70
     2
  9
$LTSCALE
 40
1.0
  9
$OSMODE
 70
    37
  9
$ATTMODE
 70
     1
  9
$TEXTSIZE
 40
3.5
  9
$TRACEWID
 40
1.0
  9
$TEXTSTYLE
  7
STANDARD
  9
$CLAYER
  8
0
  9
$CELTYPE
  6
BYLAYER
  9
$CECOLOR
 62
   256
  9
$DIMSCALE
 40
1.0
  9
$DIMASZ
 40
3.556
  9
$DIMEXO
 40
1.0
  9
$DIMDLI
 40
3.75
  9
$DIMRND
 40
0.0
  9
$DIMDLE
 40
0.0
  9
$DIMEXE
 40
1.0
  9
$DIMTP
 40
0.0
  9
$DIMTM
 40
0.0
  9
$DIMTXT
 40
3.5
  9
$DIMCEN
 40
2.5
  9
$DIMTSZ
 40
0.0
  9
$DIMTOL
 70
     0
  9
$DIMLIM
 70
     0
  9
$DIMTIH
 70
     1
  9
$DIMTOH
 70
     1
  9
$DIMSE1
 70
     0
  9
$DIMSE2
 70
     0
  9
$DIMTAD
 70
     1
  9
$DIMZIN
 70
     0
  9
$DIMBLK
  1

  9
$DIMASO
 70
     1
  9
$DIMSHO
 70
     1
  9
$DIMPOST
  1

  9
$DIMAPOST
  1

  9
$DIMALT
 70
     0
  9
$DIMALTD
 70
     3
  9
$DIMALTF
 40
0.0393700787
  9
$DIMLFAC
 40
1.0
  9
$DIMTOFL
 70
     1
  9
$DIMTVP
 40
0.0
  9
$DIMTIX
 70
     0
  9
$DIMSOXD
 70
     0
  9
$DIMSAH
 70
     0
  9
$DIMBLK1
  1

  9
$DIMBLK2
  1

  9
$DIMSTYLE
  2
ISO-25
  9
$DIMCLRD
 70
     0
  9
$DIMCLRE
 70
     0
  9
$DIMCLRT
 70
     0
  9
$DIMTFAC
 40
1.0
  9
$DIMGAP
 40
1.524
  9
$LUNITS
 70
     2
  9
$LUPREC
 70
     2
  9
$SKETCHINC
 40
1.0
  9
$FILLETRAD
 40
10.0
  9
$AUNITS
 70
     0
  9
$AUPREC
 70
     2
  9
$MENU
  1
.
  9
$ELEVATION
 40
0.0
  9
$PELEVATION
 40
0.0
  9
$THICKNESS
 40
0.0
  9
$LIMCHECK
 70
     0
  9
$CHAMFERA
 40
10.0
  9
$CHAMFERB
 40
10.0
  9
$SKPOLY
 70
     0
  9
$TDCREATE
 40
2456856.610289722
  9
$TDUPDATE
 40
2456856.610317211
  9
$TDINDWG
 40
0.0000000116
  9
$TDUSRTIMER
 40
0.0000000116
  9
$USRTIMER
 70
     1
  9
$ANGBASE
 50
0.0
  9
$ANGDIR
 70
     0
  9
$PDMODE
 70
     0
  9
$PDSIZE
 40
-1.0
  9
$PLINEWID
 40
0.0
  9
$COORDS
 70
     1
  9
$SPLFRAME
 70
     0
  9
$SPLINETYPE
 70
     6
  9
$SPLINESEGS
 70
     8
  9
$ATTDIA
 70
     0
  9
$ATTREQ
 70
     1
  9
$HANDLING
 70
     1
  9
$HANDSEED
  5
31C
  9
$SURFTAB1
 70
     6
  9
$SURFTAB2
 70
     6
  9
$SURFTYPE
 70
     6
  9
$SURFU
 70
     6
  9
$SURFV
 70
     6
  9
$UCSNAME
  2

  9
$UCSORG
 10
0.0
 20
0.0
 30
0.0
  9
$UCSXDIR
 10
1.0
 20
0.0
 30
0.0
  9
$UCSYDIR
 10
0.0
 20
1.0
 30
0.0
  9
$PUCSNAME
  2

  9
$PUCSORG
 10
0.0
 20
0.0
 30
0.0
  9
$PUCSXDIR
 10
1.0
 20
0.0
 30
0.0
  9
$PUCSYDIR
 10
0.0
 20
1.0
 30
0.0
  9
$USERI1
 70
     0
  9
$USERI2
 70
     0
  9
$USERI3
 70
     0
  9
$USERI4
 70
     0
  9
$USERI5
 70
     0
  9
$USERR1
 40
0.0
  9
$USERR2
 40
0.0
  9
$USERR3
 40
0.0
  9
$USERR4
 40
0.0
  9
$USERR5
 40
0.0
  9
$WORLDVIEW
 70
     1
  9
$SHADEDGE
 70
     3
  9
$SHADEDIF
 70
    70
  9
$TILEMODE
 70
     1
  9
$MAXACTVP
 70
    64
  9
$PLIMCHECK
 70
     0
  9
$PEXTMIN
 10
1.0000000000E+20
 20
1.0000000000E+20
 30
1.0000000000E+20
  9
$PEXTMAX
 10
-1.0000000000E+20
 20
-1.0000000000E+20
 30
-1.0000000000E+20
  9
$PLIMMIN
 10
0.0
 20
0.0
  9
$PLIMMAX
 10
420.0
 20
297.0
  9
$UNITMODE
 70
     0
  9
$VISRETAIN
 70
     1
  9
$PLINEGEN
 70
     0
  9
$PSLTSCALE
 70
     1
  0
ENDSEC
  0
SECTION
  2
TABLES
  0
TABLE
  2
VPORT
 70
     1
  0
VPORT
  2
*ACTIVE
 70
     0
 10
0.0
 20
0.0
 11
1.0
 21
1.0
 12
100.00000066
 22
100.01709486
 13
0.0
 23
0.0
 14
10.0
 24
10.0
 15
10.0
 25
10.0
 16
0.0
 26
0.0
 36
1.0
 17
0.0
 27
0.0
 37
0.0
 40
40.7870058528
 41
1.0008549823
 42
50.0
 43
0.0
 44
0.0
 50
0.0
 51
0.0
 71
     0
 72
   100
 73
     1
 74
     3
 75
     0
 76
     0
 77
     0
 78
     0
  0
ENDTAB
  0
TABLE
  2
LTYPE
 70
     6
  0
LTYPE
  2
CONTINUOUS
 70
     0
  3
Solid line
 72
    65
 73
     0
 40
0.0
  0
LTYPE
  2
HIDDEN
 70
     0
  3
Hidden __ __ __ __ __ __ __ __ __ __ __ __ __ __
 72
    65
 73
     2
 40
1.905
 49
1.27
 49
-0.635
  0
LTYPE
  2
PHANTOM
 70
     0
  3
Phantom ______  __  __  ______  __  __  ______
 72
    65
 73
     6
 40
12.7
 49
6.35
 49
-1.27
 49
1.27
 49
-1.27
 49
1.27
 49
-1.27
  0
LTYPE
  2
CENTER
 70
     0
  3
Center ____ _ ____ _ ____ _ ____ _ ____ _ ____
 72
    65
 73
     4
 40
10.16
 49
6.35
 49
-1.27
 49
1.27
 49
-1.27
  0
LTYPE
  2
CENTERX2
 70
     0
  3
Center (2x) ________  __  ________  __  _____
 72
    65
 73
     4
 40
20.32
 49
12.7
 49
-2.54
 49
2.54
 49
-2.54
  0
LTYPE
  2
DOT2
 70
     0
  3
Dot (.5x) ........................................
 72
    65
 73
     2
 40
0.635
 49
0.0
 49
-0.635
  0
ENDTAB
  0
TABLE
  2
LAYER
 70
     1
  0
LAYER
  2
0
 70
     0
 62
     7
  6
CONTINUOUS
  0
ENDTAB
  0
TABLE
  2
STYLE
 70
     1
  0
STYLE
  2
STANDARD
 70
     0
 40
0.0
 41
1.0
 50
0.0
 71
     0
 42
3.5
  3
txt
  4

  0
ENDTAB
  0
TABLE
  2
VIEW
 70
     0
  0
ENDTAB
  0
TABLE
  2
UCS
 70
     0
  0
ENDTAB
  0
TABLE
  2
APPID
 70
     1
  0
APPID
  2
ACAD
 70
     0
  0
ENDTAB
  0
TABLE
  2
DIMSTYLE
 70
     1
  0
DIMSTYLE
  2
ISO-25
 70
     0
  3

  4

  5

  6

  7

 40
1.0
 41
2.5
 42
0.625
 43
3.75
 44
1.25
 45
0.0
 46
0.0
 47
0.0
 48
0.0
140
2.5
141
2.5
142
0.0
143
0.0393700787
144
1.0
145
0.0
146
1.0
147
0.625
 71
     0
 72
     0
 73
     0
 74
     0
 75
     0
 76
     0
 77
     1
 78
     8
170
     0
171
     3
172
     1
173
     0
174
     0
175
     0
176
     0
177
     0
178
     0
  0
ENDTAB
  0
ENDSEC
  0
SECTION
  2
BLOCKS
  0
BLOCK
  8
0
  2
$MODEL_SPACE
 70
     0
 10
0.0
 20
0.0
 30
0.0
  3
$MODEL_SPACE
  1

  0
ENDBLK
  5
21
  8
0
  0
BLOCK
 67
     1
  8
0
  2
$PAPER_SPACE
 70
     0
 10
0.0
 20
0.0
 30
0.0
  3
$PAPER_SPACE
  1

  0
ENDBLK
  5
1D
 67
     1
  8
0
  0
ENDSEC
  0
SECTION
  2
ENTITIES
  0
CIRCLE
  5
44
  8
0
  6
CONTINUOUS
 62
     7
 10
87.59006358
 20
94.30004384
 30
0.0
 40
0.3000000000148901
  0
CIRCLE
  5
45
  8
0
  6
CONTINUOUS
 62
     7
 10
87.59006358
 20
94.30004384
 30
0.0
 40
0.4000000000000057
  0
CIRCLE
  5
46
  8
0
  6
CONTINUOUS
 62
     7
 10
87.59006358
 20
105.70004384
 30
0.0
 40
0.2999999999999687
  0
CIRCLE
  5
47
  8
0
  6
CONTINUOUS
 62
     7
 10
87.59006358
 20
105.70004384
 30
0.0
 40
0.2000000000399638
  0
CIRCLE
  5
71
  8
0
  6
CONTINUOUS
 62
     7
 10
94.4011539792
 20
116.3263341432
 30
0.0
 40
0.2499999999999858
  0
CIRCLE
  5
96
  8
0
  6
CONTINUOUS
 62
     7
 10
83.9989682065
 20
106.4451660705
 30
0.0
 40
0.25
  0
CIRCLE
  5
A8
  8
0
  6
CONTINUOUS
 62
     7
 10
113.9027043965
 20
89.809083358
 30
0.0
 40
0.25
  0
CIRCLE
  5
BD
  8
0
  6
CONTINUOUS
 62
     7
 10
112.4449999
 20
112.4449999
 30
0.0
 40
0.8499982999999958
  0
CIRCLE
  5
BE
  8
0
  6
CONTINUOUS
 62
     7
 10
91.0760688
 20
90.8188303
 30
0.0
 40
0.84999830000001
  0
CIRCLE
  5
BF
  8
0
  6
CONTINUOUS
 62
     7
 10
87.55499888
 20
112.4449999
 30
0.0
 40
0.84999830000001
  0
CIRCLE
  5
C2
  8
0
  6
CONTINUOUS
 62
     7
 10
87.59000008
 20
105.69999942
 30
0.0
 40
0.349999299999979
  0
CIRCLE
  5
C3
  8
0
  6
CONTINUOUS
 62
     7
 10
82.07499968
 20
101.7999996
 30
0.0
 40
0.8499982999999958
  0
CIRCLE
  5
C4
  8
0
  6
CONTINUOUS
 62
     7
 10
82.050001
 20
98.19999918
 30
0.0
 40
0.8499982999999673
  0
CIRCLE
  5
C5
  8
0
  6
CONTINUOUS
 62
     7
 10
87.55499888
 20
87.55499888
 30
0.0
 40
0.84999830000001
  0
CIRCLE
  5
C6
  8
0
  6
CONTINUOUS
 62
     7
 10
91.06554812
 20
87.3363633
 30
0.0
 40
0.84999830000001
  0
CIRCLE
  5
C7
  8
0
  6
CONTINUOUS
 62
     7
 10
87.59000008
 20
94.3000019
 30
0.0
 40
0.4499990999999852
  0
CIRCLE
  5
C8
  8
0
  6
CONTINUOUS
 62
     7
 10
83.57499922
 20
93.27500014
 30
0.0
 40
0.8499983000000384
  0
LINE
  5
1C9
  8
0
  6
CONTINUOUS
 62
     7
 10
87.99006358
 20
94.30004384
 30
0.0
 11
88.039999178
 21
94.30004384
 31
0.0
  0
LINE
  5
1CA
  8
0
  6
CONTINUOUS
 62
     7
 10
87.140000982
 20
94.30004384
 30
0.0
 11
87.19006358
 21
94.30004384
 31
0.0
  0
LINE
  5
1CB
  8
0
  6
CONTINUOUS
 62
     7
 10
113.6672225
 20
108.60327276
 30
0.0
 11
114.21722394
 21
108.60327276
 31
0.0
  0
LINE
  5
1CC
  8
0
  6
CONTINUOUS
 62
     7
 10
114.21722394
 20
108.85327226
 30
0.0
 11
113.6672225
 21
108.85327226
 31
0.0
  0
LINE
  5
1CD
  8
0
  6
CONTINUOUS
 62
     7
 10
94.0710461671
 20
84.5306482025
 30
0.0
 11
94.7110461671
 21
84.5306482025
 31
0.0
  0
LINE
  5
1CE
  8
0
  6
CONTINUOUS
 62
     7
 10
94.6110461671
 20
84.4306482025
 30
0.0
 11
94.7110461671
 21
84.5306482025
 31
0.0
  0
LINE
  5
1CF
  8
0
  6
CONTINUOUS
 62
     7
 10
94.1710461671
 20
84.4306482025
 30
0.0
 11
94.6110461671
 21
84.4306482025
 31
0.0
  0
LINE
  5
1D0
  8
0
  6
CONTINUOUS
 62
     7
 10
94.0710461671
 20
84.5306482025
 30
0.0
 11
94.1710461671
 21
84.4306482025
 31
0.0
  0
LINE
  5
1D1
  8
0
  6
CONTINUOUS
 62
     7
 10
94.1710461671
 20
83.9906482025
 30
0.0
 11
94.1710461671
 21
84.4306482025
 31
0.0
  0
LINE
  5
1D2
  8
0
  6
CONTINUOUS
 62
     7
 10
94.6110461671
 20
84.4306482025
 30
0.0
 11
94.6110461671
 21
83.9906482025
 31
0.0
  0
LINE
  5
1D3
  8
0
  6
CONTINUOUS
 62
     7
 10
94.6110461671
 20
83.9906482025
 30
0.0
 11
94.1710461671
 21
83.9906482025
 31
0.0
  0
LINE
  5
1D4
  8
0
  6
CONTINUOUS
 62
     7
 10
94.7110461671
 20
84.5306482025
 30
0.0
 11
94.7110461671
 21
83.8906482025
 31
0.0
  0
LINE
  5
1D5
  8
0
  6
CONTINUOUS
 62
     7
 10
94.6110461671
 20
83.9906482025
 30
0.0
 11
94.7110461671
 21
83.8906482025
 31
0.0
  0
LINE
  5
1D6
  8
0
  6
CONTINUOUS
 62
     7
 10
94.7110461671
 20
83.8906482025
 30
0.0
 11
94.0710461671
 21
83.8906482025
 31
0.0
  0
LINE
  5
1D7
  8
0
  6
CONTINUOUS
 62
     7
 10
94.0710461671
 20
83.8906482025
 30
0.0
 11
94.1710461671
 21
83.9906482025
 31
0.0
  0
LINE
  5
1D8
  8
0
  6
CONTINUOUS
 62
     7
 10
94.0710461671
 20
83.8906482025
 30
0.0
 11
94.0710461671
 21
84.5306482025
 31
0.0
  0
LINE
  5
1D9
  8
0
  6
CONTINUOUS
 62
     7
 10
93.3210461671
 20
83.1406482025
 30
0.0
 11
93.1210461671
 21
82.9406482025
 31
0.0
  0
LINE
  5
1DA
  8
0
  6
CONTINUOUS
 62
     7
 10
93.1210461671
 20
82.9406482025
 30
0.0
 11
93.1210461671
 21
85.4806482025
 31
0.0
  0
LINE
  5
1DB
  8
0
  6
CONTINUOUS
 62
     7
 10
93.3210461671
 20
85.2806482025
 30
0.0
 11
93.1210461671
 21
85.4806482025
 31
0.0
  0
LINE
  5
1DC
  8
0
  6
CONTINUOUS
 62
     7
 10
93.3210461671
 20
85.2806482025
 30
0.0
 11
93.3210461671
 21
83.1406482025
 31
0.0
  0
LINE
  5
1DD
  8
0
  6
CONTINUOUS
 62
     7
 10
95.6610461671
 20
85.4806482025
 30
0.0
 11
95.4610461671
 21
85.2806482025
 31
0.0
  0
LINE
  5
1DE
  8
0
  6
CONTINUOUS
 62
     7
 10
95.4610461671
 20
85.2806482025
 30
0.0
 11
93.3210461671
 21
85.2806482025
 31
0.0
  0
LINE
  5
1DF
  8
0
  6
CONTINUOUS
 62
     7
 10
95.6610461671
 20
85.4806482025
 30
0.0
 11
90.5810461671
 21
85.4806482025
 31
0.0
  0
LINE
  5
1E0
  8
0
  6
CONTINUOUS
 62
     7
 10
95.4610461671
 20
83.1406482025
 30
0.0
 11
95.4610461671
 21
85.2806482025
 31
0.0
  0
LINE
  5
1E1
  8
0
  6
CONTINUOUS
 62
     7
 10
95.4610461671
 20
83.1406482025
 30
0.0
 11
93.3210461671
 21
83.1406482025
 31
0.0
  0
LINE
  5
1E2
  8
0
  6
CONTINUOUS
 62
     7
 10
95.6610461671
 20
82.9406482025
 30
0.0
 11
95.6610461671
 21
85.4806482025
 31
0.0
  0
LINE
  5
1E3
  8
0
  6
CONTINUOUS
 62
     7
 10
95.6610461671
 20
82.9406482025
 30
0.0
 11
95.4610461671
 21
83.1406482025
 31
0.0
  0
LINE
  5
1E4
  8
0
  6
CONTINUOUS
 62
     7
 10
95.6610461671
 20
82.9406482025
 30
0.0
 11
90.5810461671
 21
82.9406482025
 31
0.0
  0
LINE
  5
1E5
  8
0
  6
CONTINUOUS
 62
     7
 10
95.6711539792
 20
117.0163341432
 30
0.0
 11
95.6711539792
 21
114.2443341432
 31
0.0
  0
LINE
  5
1E6
  8
0
  6
CONTINUOUS
 62
     7
 10
95.6711539792
 20
114.2443341432
 30
0.0
 11
95.4171539792
 21
114.2443341432
 31
0.0
  0
LINE
  5
1E7
  8
0
  6
CONTINUOUS
 62
     7
 10
95.4171539792
 20
114.2443341432
 30
0.0
 11
95.4171539792
 21
117.0163341432
 31
0.0
  0
LINE
  5
1E8
  8
0
  6
CONTINUOUS
 62
     7
 10
95.6711539792
 20
117.0163341432
 30
0.0
 11
95.4171539792
 21
117.0163341432
 31
0.0
  0
LINE
  5
1E9
  8
0
  6
CONTINUOUS
 62
     7
 10
93.3851539792
 20
117.0163341432
 30
0.0
 11
93.3851539792
 21
114.2443341432
 31
0.0
  0
LINE
  5
1EA
  8
0
  6
CONTINUOUS
 62
     7
 10
95.3921539792
 20
117.0413341432
 30
0.0
 11
93.4101539792
 21
117.0413341432
 31
0.0
  0
LINE
  5
1EB
  8
0
  6
CONTINUOUS
 62
     7
 10
93.4101539792
 20
114.2193341432
 30
0.0
 11
95.3921539792
 21
114.2193341432
 31
0.0
  0
LINE
  5
1EC
  8
0
  6
CONTINUOUS
 62
     7
 10
93.4101539792
 20
114.2193341432
 30
0.0
 11
93.4101539792
 21
113.9653341432
 31
0.0
  0
LINE
  5
1ED
  8
0
  6
CONTINUOUS
 62
     7
 10
93.3851539792
 20
114.2443341432
 30
0.0
 11
93.1311539792
 21
114.2443341432
 31
0.0
  0
LINE
  5
1EE
  8
0
  6
CONTINUOUS
 62
     7
 10
95.3921539792
 20
114.2193341432
 30
0.0
 11
95.3921539792
 21
113.9653341432
 31
0.0
  0
LINE
  5
1EF
  8
0
  6
CONTINUOUS
 62
     7
 10
95.3921539792
 20
113.9653341432
 30
0.0
 11
93.4101539792
 21
113.9653341432
 31
0.0
  0
LINE
  5
1F0
  8
0
  6
CONTINUOUS
 62
     7
 10
93.3851539792
 20
117.0163341432
 30
0.0
 11
93.1311539792
 21
117.0163341432
 31
0.0
  0
LINE
  5
1F1
  8
0
  6
CONTINUOUS
 62
     7
 10
93.4101539792
 20
117.2953341432
 30
0.0
 11
93.4101539792
 21
117.0413341432
 31
0.0
  0
LINE
  5
1F2
  8
0
  6
CONTINUOUS
 62
     7
 10
93.4101539792
 20
117.2953341432
 30
0.0
 11
95.3921539792
 21
117.2953341432
 31
0.0
  0
LINE
  5
1F3
  8
0
  6
CONTINUOUS
 62
     7
 10
95.3921539792
 20
117.2953341432
 30
0.0
 11
95.3921539792
 21
117.0413341432
 31
0.0
  0
LINE
  5
1F4
  8
0
  6
CONTINUOUS
 62
     7
 10
93.1311539792
 20
114.2443341432
 30
0.0
 11
93.1311539792
 21
117.0163341432
 31
0.0
  0
LINE
  5
1F5
  8
0
  6
CONTINUOUS
 62
     7
 10
95.8761539792
 20
117.5103341432
 30
0.0
 11
92.9261539792
 21
117.5103341432
 31
0.0
  0
LINE
  5
1F6
  8
0
  6
CONTINUOUS
 62
     7
 10
95.8761539792
 20
113.7503341432
 30
0.0
 11
95.8761539792
 21
117.5103341432
 31
0.0
  0
LINE
  5
1F7
  8
0
  6
CONTINUOUS
 62
     7
 10
92.9261539792
 20
117.5103341432
 30
0.0
 11
92.9261539792
 21
113.7503341432
 31
0.0
  0
LINE
  5
1F8
  8
0
  6
CONTINUOUS
 62
     7
 10
92.9261539792
 20
113.7503341432
 30
0.0
 11
95.8761539792
 21
113.7503341432
 31
0.0
  0
LINE
  5
1F9
  8
0
  6
CONTINUOUS
 62
     7
 10
83.3089682065
 20
105.4291660705
 30
0.0
 11
83.3089682065
 21
105.1751660705
 31
0.0
  0
LINE
  5
1FA
  8
0
  6
CONTINUOUS
 62
     7
 10
83.0299682065
 20
105.4541660705
 30
0.0
 11
83.2839682065
 21
105.4541660705
 31
0.0
  0
LINE
  5
1FB
  8
0
  6
CONTINUOUS
 62
     7
 10
86.1059682065
 20
105.4541660705
 30
0.0
 11
86.3599682065
 21
105.4541660705
 31
0.0
  0
LINE
  5
1FC
  8
0
  6
CONTINUOUS
 62
     7
 10
86.0809682065
 20
105.4291660705
 30
0.0
 11
86.0809682065
 21
105.1751660705
 31
0.0
  0
LINE
  5
1FD
  8
0
  6
CONTINUOUS
 62
     7
 10
83.0299682065
 20
105.4541660705
 30
0.0
 11
83.0299682065
 21
107.4361660705
 31
0.0
  0
LINE
  5
1FE
  8
0
  6
CONTINUOUS
 62
     7
 10
83.0299682065
 20
107.4361660705
 30
0.0
 11
83.2839682065
 21
107.4361660705
 31
0.0
  0
LINE
  5
1FF
  8
0
  6
CONTINUOUS
 62
     7
 10
83.2839682065
 20
107.4361660705
 30
0.0
 11
83.2839682065
 21
105.4541660705
 31
0.0
  0
LINE
  5
200
  8
0
  6
CONTINUOUS
 62
     7
 10
83.3089682065
 20
105.4291660705
 30
0.0
 11
86.0809682065
 21
105.4291660705
 31
0.0
  0
LINE
  5
201
  8
0
  6
CONTINUOUS
 62
     7
 10
86.0809682065
 20
105.1751660705
 30
0.0
 11
83.3089682065
 21
105.1751660705
 31
0.0
  0
LINE
  5
202
  8
0
  6
CONTINUOUS
 62
     7
 10
83.3089682065
 20
107.7151660705
 30
0.0
 11
83.3089682065
 21
107.4611660705
 31
0.0
  0
LINE
  5
203
  8
0
  6
CONTINUOUS
 62
     7
 10
86.0809682065
 20
107.4611660705
 30
0.0
 11
83.3089682065
 21
107.4611660705
 31
0.0
  0
LINE
  5
204
  8
0
  6
CONTINUOUS
 62
     7
 10
86.1059682065
 20
105.4541660705
 30
0.0
 11
86.1059682065
 21
107.4361660705
 31
0.0
  0
LINE
  5
205
  8
0
  6
CONTINUOUS
 62
     7
 10
83.3089682065
 20
107.7151660705
 30
0.0
 11
86.0809682065
 21
107.7151660705
 31
0.0
  0
LINE
  5
206
  8
0
  6
CONTINUOUS
 62
     7
 10
86.0809682065
 20
107.7151660705
 30
0.0
 11
86.0809682065
 21
107.4611660705
 31
0.0
  0
LINE
  5
207
  8
0
  6
CONTINUOUS
 62
     7
 10
86.1059682065
 20
107.4361660705
 30
0.0
 11
86.3599682065
 21
107.4361660705
 31
0.0
  0
LINE
  5
208
  8
0
  6
CONTINUOUS
 62
     7
 10
86.3599682065
 20
107.4361660705
 30
0.0
 11
86.3599682065
 21
105.4541660705
 31
0.0
  0
LINE
  5
209
  8
0
  6
CONTINUOUS
 62
     7
 10
82.8149682065
 20
107.9201660705
 30
0.0
 11
82.8149682065
 21
104.9701660705
 31
0.0
  0
LINE
  5
20A
  8
0
  6
CONTINUOUS
 62
     7
 10
86.5749682065
 20
107.9201660705
 30
0.0
 11
82.8149682065
 21
107.9201660705
 31
0.0
  0
LINE
  5
20B
  8
0
  6
CONTINUOUS
 62
     7
 10
82.8149682065
 20
104.9701660705
 30
0.0
 11
86.5749682065
 21
104.9701660705
 31
0.0
  0
LINE
  5
20C
  8
0
  6
CONTINUOUS
 62
     7
 10
86.5749682065
 20
104.9701660705
 30
0.0
 11
86.5749682065
 21
107.9201660705
 31
0.0
  0
LINE
  5
20D
  8
0
  6
CONTINUOUS
 62
     7
 10
114.5927043965
 20
90.825083358
 30
0.0
 11
111.8207043965
 21
90.825083358
 31
0.0
  0
LINE
  5
20E
  8
0
  6
CONTINUOUS
 62
     7
 10
114.6177043965
 20
88.818083358
 30
0.0
 11
114.6177043965
 21
90.800083358
 31
0.0
  0
LINE
  5
20F
  8
0
  6
CONTINUOUS
 62
     7
 10
111.8207043965
 20
88.793083358
 30
0.0
 11
114.5927043965
 21
88.793083358
 31
0.0
  0
LINE
  5
210
  8
0
  6
CONTINUOUS
 62
     7
 10
111.7957043965
 20
90.800083358
 30
0.0
 11
111.7957043965
 21
88.818083358
 31
0.0
  0
LINE
  5
211
  8
0
  6
CONTINUOUS
 62
     7
 10
111.8207043965
 20
88.539083358
 30
0.0
 11
111.8207043965
 21
88.793083358
 31
0.0
  0
LINE
  5
212
  8
0
  6
CONTINUOUS
 62
     7
 10
111.7957043965
 20
88.818083358
 30
0.0
 11
111.5417043965
 21
88.818083358
 31
0.0
  0
LINE
  5
213
  8
0
  6
CONTINUOUS
 62
     7
 10
114.5927043965
 20
88.539083358
 30
0.0
 11
114.5927043965
 21
88.793083358
 31
0.0
  0
LINE
  5
214
  8
0
  6
CONTINUOUS
 62
     7
 10
114.8717043965
 20
88.818083358
 30
0.0
 11
114.6177043965
 21
88.818083358
 31
0.0
  0
LINE
  5
215
  8
0
  6
CONTINUOUS
 62
     7
 10
114.8717043965
 20
90.800083358
 30
0.0
 11
114.8717043965
 21
88.818083358
 31
0.0
  0
LINE
  5
216
  8
0
  6
CONTINUOUS
 62
     7
 10
114.8717043965
 20
90.800083358
 30
0.0
 11
114.6177043965
 21
90.800083358
 31
0.0
  0
LINE
  5
217
  8
0
  6
CONTINUOUS
 62
     7
 10
111.8207043965
 20
90.825083358
 30
0.0
 11
111.8207043965
 21
91.079083358
 31
0.0
  0
LINE
  5
218
  8
0
  6
CONTINUOUS
 62
     7
 10
111.8207043965
 20
91.079083358
 30
0.0
 11
114.5927043965
 21
91.079083358
 31
0.0
  0
LINE
  5
219
  8
0
  6
CONTINUOUS
 62
     7
 10
114.5927043965
 20
90.825083358
 30
0.0
 11
114.5927043965
 21
91.079083358
 31
0.0
  0
LINE
  5
21A
  8
0
  6
CONTINUOUS
 62
     7
 10
114.5927043965
 20
88.539083358
 30
0.0
 11
111.8207043965
 21
88.539083358
 31
0.0
  0
LINE
  5
21B
  8
0
  6
CONTINUOUS
 62
     7
 10
111.7957043965
 20
90.800083358
 30
0.0
 11
111.5417043965
 21
90.800083358
 31
0.0
  0
LINE
  5
21C
  8
0
  6
CONTINUOUS
 62
     7
 10
111.5417043965
 20
88.818083358
 30
0.0
 11
111.5417043965
 21
90.800083358
 31
0.0
  0
LINE
  5
21D
  8
0
  6
CONTINUOUS
 62
     7
 10
115.0867043965
 20
88.334083358
 30
0.0
 11
115.0867043965
 21
91.284083358
 31
0.0
  0
LINE
  5
21E
  8
0
  6
CONTINUOUS
 62
     7
 10
111.3267043965
 20
88.334083358
 30
0.0
 11
115.0867043965
 21
88.334083358
 31
0.0
  0
LINE
  5
21F
  8
0
  6
CONTINUOUS
 62
     7
 10
111.3267043965
 20
91.284083358
 30
0.0
 11
111.3267043965
 21
88.334083358
 31
0.0
  0
LINE
  5
220
  8
0
  6
CONTINUOUS
 62
     7
 10
115.0867043965
 20
91.284083358
 30
0.0
 11
111.3267043965
 21
91.284083358
 31
0.0
  0
LINE
  5
221
  8
0
  6
CONTINUOUS
 62
     7
 10
94.82084414
 20
80.6711239
 30
0.0
 11
96.09610194
 21
80.37377626
 31
0.0
  0
LINE
  5
222
  8
0
  6
CONTINUOUS
 62
     7
 10
93.56776308
 20
81.05124252
 30
0.0
 11
94.82084414
 21
80.6711239
 31
0.0
  0
LINE
  5
223
  8
0
  6
CONTINUOUS
 62
     7
 10
92.34222832
 20
81.51250144
 30
0.0
 11
93.56776308
 21
81.05124252
 31
0.0
  0
LINE
  5
224
  8
0
  6
CONTINUOUS
 62
     7
 10
91.14948242
 20
82.05292708
 30
0.0
 11
92.34222832
 21
81.51250144
 31
0.0
  0
LINE
  5
225
  8
0
  6
CONTINUOUS
 62
     7
 10
89.9946384
 20
82.6702055
 30
0.0
 11
91.14948242
 21
82.05292708
 31
0.0
  0
LINE
  5
226
  8
0
  6
CONTINUOUS
 62
     7
 10
88.88263656
 20
83.36169256
 30
0.0
 11
89.9946384
 21
82.6702055
 31
0.0
  0
LINE
  5
227
  8
0
  6
CONTINUOUS
 62
     7
 10
87.81824448
 20
84.12442662
 30
0.0
 11
88.88263656
 21
83.36169256
 31
0.0
  0
LINE
  5
228
  8
0
  6
CONTINUOUS
 62
     7
 10
86.80601384
 20
84.95514124
 30
0.0
 11
87.81824448
 21
84.12442662
 31
0.0
  0
LINE
  5
229
  8
0
  6
CONTINUOUS
 62
     7
 10
85.85028042
 20
85.85028042
 30
0.0
 11
86.80601384
 21
84.95514124
 31
0.0
  0
LINE
  5
22A
  8
0
  6
CONTINUOUS
 62
     7
 10
84.95514124
 20
86.80601384
 30
0.0
 11
85.85028042
 21
85.85028042
 31
0.0
  0
LINE
  5
22B
  8
0
  6
CONTINUOUS
 62
     7
 10
83.36169256
 20
88.88263656
 30
0.0
 11
84.12442662
 21
87.81824448
 31
0.0
  0
LINE
  5
22C
  8
0
  6
CONTINUOUS
 62
     7
 10
82.6702055
 20
89.9946384
 30
0.0
 11
83.36169256
 21
88.88263656
 31
0.0
  0
LINE
  5
22D
  8
0
  6
CONTINUOUS
 62
     7
 10
82.05292708
 20
91.14948242
 30
0.0
 11
82.6702055
 21
89.9946384
 31
0.0
  0
LINE
  5
22E
  8
0
  6
CONTINUOUS
 62
     7
 10
81.51250144
 20
92.34222832
 30
0.0
 11
82.05292708
 21
91.14948242
 31
0.0
  0
LINE
  5
22F
  8
0
  6
CONTINUOUS
 62
     7
 10
81.05124252
 20
93.56776308
 30
0.0
 11
81.51250144
 21
92.34222832
 31
0.0
  0
LINE
  5
230
  8
0
  6
CONTINUOUS
 62
     7
 10
80.6711239
 20
94.82084414
 30
0.0
 11
81.05124252
 21
93.56776308
 31
0.0
  0
LINE
  5
231
  8
0
  6
CONTINUOUS
 62
     7
 10
80.37377626
 20
96.09610194
 30
0.0
 11
80.6711239
 21
94.82084414
 31
0.0
  0
LINE
  5
232
  8
0
  6
CONTINUOUS
 62
     7
 10
80.1604696
 20
97.38807802
 30
0.0
 11
80.37377626
 21
96.09610194
 31
0.0
  0
LINE
  5
233
  8
0
  6
CONTINUOUS
 62
     7
 10
80.03212086
 20
98.69123772
 30
0.0
 11
80.1604696
 21
97.38807802
 31
0.0
  0
LINE
  5
234
  8
0
  6
CONTINUOUS
 62
     7
 10
80.03212086
 20
101.3087636
 30
0.0
 11
79.98927614
 21
100.00000066
 31
0.0
  0
LINE
  5
235
  8
0
  6
CONTINUOUS
 62
     7
 10
80.1604696
 20
102.6119233
 30
0.0
 11
80.03212086
 21
101.3087636
 31
0.0
  0
LINE
  5
236
  8
0
  6
CONTINUOUS
 62
     7
 10
80.37377626
 20
103.90389938
 30
0.0
 11
80.1604696
 21
102.6119233
 31
0.0
  0
LINE
  5
237
  8
0
  6
CONTINUOUS
 62
     7
 10
80.6711239
 20
105.17915718
 30
0.0
 11
80.37377626
 21
103.90389938
 31
0.0
  0
LINE
  5
238
  8
0
  6
CONTINUOUS
 62
     7
 10
81.05124252
 20
106.43223824
 30
0.0
 11
80.6711239
 21
105.17915718
 31
0.0
  0
LINE
  5
239
  8
0
  6
CONTINUOUS
 62
     7
 10
81.51250144
 20
107.657773
 30
0.0
 11
81.05124252
 21
106.43223824
 31
0.0
  0
LINE
  5
23A
  8
0
  6
CONTINUOUS
 62
     7
 10
82.05292708
 20
108.8505189
 30
0.0
 11
81.51250144
 21
107.657773
 31
0.0
  0
LINE
  5
23B
  8
0
  6
CONTINUOUS
 62
     7
 10
82.17761568
 20
109.08379504
 30
0.0
 11
82.05292708
 21
108.8505189
 31
0.0
  0
LINE
  5
23C
  8
0
  6
CONTINUOUS
 62
     7
 10
82.18100658
 20
109.0820653
 30
0.0
 11
82.17761568
 21
109.08379504
 31
0.0
  0
LINE
  5
23D
  8
0
  6
CONTINUOUS
 62
     7
 10
83.17103508
 20
108.51047132
 30
0.0
 11
82.18100658
 21
109.0820653
 31
0.0
  0
LINE
  5
23E
  8
0
  6
CONTINUOUS
 62
     7
 10
84.21523416
 20
110.31907578
 30
0.0
 11
83.17103508
 21
108.51047132
 31
0.0
  0
LINE
  5
23F
  8
0
  6
CONTINUOUS
 62
     7
 10
83.22201288
 20
110.8927424
 30
0.0
 11
84.21523416
 21
110.31907578
 31
0.0
  0
LINE
  5
240
  8
0
  6
CONTINUOUS
 62
     7
 10
83.36169256
 20
111.11736476
 30
0.0
 11
83.22201288
 21
110.8927424
 31
0.0
  0
LINE
  5
241
  8
0
  6
CONTINUOUS
 62
     7
 10
84.12442662
 20
112.18175684
 30
0.0
 11
83.36169256
 21
111.11736476
 31
0.0
  0
LINE
  5
242
  8
0
  6
CONTINUOUS
 62
     7
 10
84.95514124
 20
113.19398748
 30
0.0
 11
84.12442662
 21
112.18175684
 31
0.0
  0
LINE
  5
243
  8
0
  6
CONTINUOUS
 62
     7
 10
85.85028042
 20
114.1497209
 30
0.0
 11
84.95514124
 21
113.19398748
 31
0.0
  0
LINE
  5
244
  8
0
  6
CONTINUOUS
 62
     7
 10
86.80601384
 20
115.04486008
 30
0.0
 11
85.85028042
 21
114.1497209
 31
0.0
  0
LINE
  5
245
  8
0
  6
CONTINUOUS
 62
     7
 10
87.81824448
 20
115.8755747
 30
0.0
 11
86.80601384
 21
115.04486008
 31
0.0
  0
LINE
  5
246
  8
0
  6
CONTINUOUS
 62
     7
 10
88.88263656
 20
116.63830876
 30
0.0
 11
87.81824448
 21
115.8755747
 31
0.0
  0
LINE
  5
247
  8
0
  6
CONTINUOUS
 62
     7
 10
89.9946384
 20
117.32979582
 30
0.0
 11
88.88263656
 21
116.63830876
 31
0.0
  0
LINE
  5
248
  8
0
  6
CONTINUOUS
 62
     7
 10
91.14948242
 20
117.94707424
 30
0.0
 11
89.9946384
 21
117.32979582
 31
0.0
  0
LINE
  5
249
  8
0
  6
CONTINUOUS
 62
     7
 10
92.34222832
 20
118.48749988
 30
0.0
 11
91.14948242
 21
117.94707424
 31
0.0
  0
LINE
  5
24A
  8
0
  6
CONTINUOUS
 62
     7
 10
93.56776308
 20
118.9487588
 30
0.0
 11
92.34222832
 21
118.48749988
 31
0.0
  0
LINE
  5
24B
  8
0
  6
CONTINUOUS
 62
     7
 10
97.38807802
 20
119.83953172
 30
0.0
 11
96.09610194
 21
119.62622506
 31
0.0
  0
LINE
  5
24C
  8
0
  6
CONTINUOUS
 62
     7
 10
98.69123772
 20
119.96788046
 30
0.0
 11
97.38807802
 21
119.83953172
 31
0.0
  0
LINE
  5
24D
  8
0
  6
CONTINUOUS
 62
     7
 10
100.00000066
 20
120.01072518
 30
0.0
 11
98.69123772
 21
119.96788046
 31
0.0
  0
LINE
  5
24E
  8
0
  6
CONTINUOUS
 62
     7
 10
102.6119233
 20
119.83953172
 30
0.0
 11
101.3087636
 21
119.96788046
 31
0.0
  0
LINE
  5
24F
  8
0
  6
CONTINUOUS
 62
     7
 10
103.90389938
 20
119.62622506
 30
0.0
 11
102.6119233
 21
119.83953172
 31
0.0
  0
LINE
  5
250
  8
0
  6
CONTINUOUS
 62
     7
 10
105.17915718
 20
119.32887742
 30
0.0
 11
103.90389938
 21
119.62622506
 31
0.0
  0
LINE
  5
251
  8
0
  6
CONTINUOUS
 62
     7
 10
107.657773
 20
118.48749988
 30
0.0
 11
106.43223824
 21
118.9487588
 31
0.0
  0
LINE
  5
252
  8
0
  6
CONTINUOUS
 62
     7
 10
108.8505189
 20
117.94707424
 30
0.0
 11
107.657773
 21
118.48749988
 31
0.0
  0
LINE
  5
253
  8
0
  6
CONTINUOUS
 62
     7
 10
110.00536292
 20
117.32979582
 30
0.0
 11
108.8505189
 21
117.94707424
 31
0.0
  0
LINE
  5
254
  8
0
  6
CONTINUOUS
 62
     7
 10
113.19398748
 20
115.04486008
 30
0.0
 11
112.18175684
 21
115.8755747
 31
0.0
  0
LINE
  5
255
  8
0
  6
CONTINUOUS
 62
     7
 10
115.8755747
 20
112.18175684
 30
0.0
 11
115.04486008
 21
113.19398748
 31
0.0
  0
LINE
  5
256
  8
0
  6
CONTINUOUS
 62
     7
 10
116.63830876
 20
111.11736476
 30
0.0
 11
115.8755747
 21
112.18175684
 31
0.0
  0
LINE
  5
257
  8
0
  6
CONTINUOUS
 62
     7
 10
117.32979582
 20
110.00536292
 30
0.0
 11
116.63830876
 21
111.11736476
 31
0.0
  0
LINE
  5
258
  8
0
  6
CONTINUOUS
 62
     7
 10
117.94707424
 20
108.8505189
 30
0.0
 11
117.32979582
 21
110.00536292
 31
0.0
  0
LINE
  5
259
  8
0
  6
CONTINUOUS
 62
     7
 10
118.48749988
 20
107.657773
 30
0.0
 11
117.94707424
 21
108.8505189
 31
0.0
  0
LINE
  5
25A
  8
0
  6
CONTINUOUS
 62
     7
 10
119.32887742
 20
105.17915718
 30
0.0
 11
118.9487588
 21
106.43223824
 31
0.0
  0
LINE
  5
25B
  8
0
  6
CONTINUOUS
 62
     7
 10
119.62622506
 20
103.90389938
 30
0.0
 11
119.32887742
 21
105.17915718
 31
0.0
  0
LINE
  5
25C
  8
0
  6
CONTINUOUS
 62
     7
 10
119.83953172
 20
102.6119233
 30
0.0
 11
119.62622506
 21
103.90389938
 31
0.0
  0
LINE
  5
25D
  8
0
  6
CONTINUOUS
 62
     7
 10
119.96788046
 20
101.3087636
 30
0.0
 11
119.83953172
 21
102.6119233
 31
0.0
  0
LINE
  5
25E
  8
0
  6
CONTINUOUS
 62
     7
 10
120.01072518
 20
100.00000066
 30
0.0
 11
119.96788046
 21
101.3087636
 31
0.0
  0
LINE
  5
25F
  8
0
  6
CONTINUOUS
 62
     7
 10
119.96788046
 20
98.69123772
 30
0.0
 11
120.01072518
 21
100.00000066
 31
0.0
  0
LINE
  5
260
  8
0
  6
CONTINUOUS
 62
     7
 10
119.83953172
 20
97.38807802
 30
0.0
 11
119.96788046
 21
98.69123772
 31
0.0
  0
LINE
  5
261
  8
0
  6
CONTINUOUS
 62
     7
 10
119.62622506
 20
96.09610194
 30
0.0
 11
119.83953172
 21
97.38807802
 31
0.0
  0
LINE
  5
262
  8
0
  6
CONTINUOUS
 62
     7
 10
119.32887742
 20
94.82084414
 30
0.0
 11
119.62622506
 21
96.09610194
 31
0.0
  0
LINE
  5
263
  8
0
  6
CONTINUOUS
 62
     7
 10
118.9487588
 20
93.56776308
 30
0.0
 11
119.32887742
 21
94.82084414
 31
0.0
  0
LINE
  5
264
  8
0
  6
CONTINUOUS
 62
     7
 10
118.48749988
 20
92.34222832
 30
0.0
 11
118.9487588
 21
93.56776308
 31
0.0
  0
LINE
  5
265
  8
0
  6
CONTINUOUS
 62
     7
 10
117.94707424
 20
91.14948242
 30
0.0
 11
118.48749988
 21
92.34222832
 31
0.0
  0
LINE
  5
266
  8
0
  6
CONTINUOUS
 62
     7
 10
117.32979582
 20
89.9946384
 30
0.0
 11
117.94707424
 21
91.14948242
 31
0.0
  0
LINE
  5
267
  8
0
  6
CONTINUOUS
 62
     7
 10
116.63830876
 20
88.88263656
 30
0.0
 11
117.32979582
 21
89.9946384
 31
0.0
  0
LINE
  5
268
  8
0
  6
CONTINUOUS
 62
     7
 10
115.8755747
 20
87.81824448
 30
0.0
 11
116.63830876
 21
88.88263656
 31
0.0
  0
LINE
  5
269
  8
0
  6
CONTINUOUS
 62
     7
 10
115.04486008
 20
86.80601384
 30
0.0
 11
115.8755747
 21
87.81824448
 31
0.0
  0
LINE
  5
26A
  8
0
  6
CONTINUOUS
 62
     7
 10
114.1497209
 20
85.85028042
 30
0.0
 11
115.04486008
 21
86.80601384
 31
0.0
  0
LINE
  5
26B
  8
0
  6
CONTINUOUS
 62
     7
 10
113.19398748
 20
84.95514124
 30
0.0
 11
114.1497209
 21
85.85028042
 31
0.0
  0
LINE
  5
26C
  8
0
  6
CONTINUOUS
 62
     7
 10
111.11736476
 20
83.36169256
 30
0.0
 11
112.18175684
 21
84.12442662
 31
0.0
  0
LINE
  5
26D
  8
0
  6
CONTINUOUS
 62
     7
 10
110.00536292
 20
82.6702055
 30
0.0
 11
111.11736476
 21
83.36169256
 31
0.0
  0
LINE
  5
26E
  8
0
  6
CONTINUOUS
 62
     7
 10
108.8505189
 20
82.05292708
 30
0.0
 11
110.00536292
 21
82.6702055
 31
0.0
  0
LINE
  5
26F
  8
0
  6
CONTINUOUS
 62
     7
 10
107.657773
 20
81.51250144
 30
0.0
 11
108.8505189
 21
82.05292708
 31
0.0
  0
LINE
  5
270
  8
0
  6
CONTINUOUS
 62
     7
 10
106.43223824
 20
81.05124252
 30
0.0
 11
107.657773
 21
81.51250144
 31
0.0
  0
LINE
  5
271
  8
0
  6
CONTINUOUS
 62
     7
 10
102.6119233
 20
80.1604696
 30
0.0
 11
103.90389938
 21
80.37377626
 31
0.0
  0
LINE
  5
272
  8
0
  6
CONTINUOUS
 62
     7
 10
101.3087636
 20
80.03212086
 30
0.0
 11
102.6119233
 21
80.1604696
 31
0.0
  0
LINE
  5
273
  8
0
  6
CONTINUOUS
 62
     7
 10
101.04439786
 20
80.02346454
 30
0.0
 11
101.3087636
 21
80.03212086
 31
0.0
  0
LINE
  5
274
  8
0
  6
CONTINUOUS
 62
     7
 10
98.95580158
 20
81.17045488
 30
0.0
 11
101.04419974
 21
81.17045488
 31
0.0
  0
LINE
  5
275
  8
0
  6
CONTINUOUS
 62
     7
 10
98.95560346
 20
80.02346454
 30
0.0
 11
98.95580158
 21
81.17045488
 31
0.0
  0
LINE
  5
276
  8
0
  6
CONTINUOUS
 62
     7
 10
98.69123772
 20
80.03212086
 30
0.0
 11
98.95560346
 21
80.02346454
 31
0.0
  0
LINE
  5
277
  8
0
  6
CONTINUOUS
 62
     7
 10
97.38807802
 20
80.1604696
 30
0.0
 11
98.69123772
 21
80.03212086
 31
0.0
  0
LINE
  5
278
  8
0
  6
CONTINUOUS
 62
     7
 10
96.09610194
 20
80.37377626
 30
0.0
 11
97.38807802
 21
80.1604696
 31
0.0
  0
LINE
  5
279
  8
0
  6
CONTINUOUS
 62
     7
 10
94.82084414
 20
119.32887742
 30
0.0
 11
93.56776308
 21
118.9487588
 31
0.0
  0
LINE
  5
27A
  8
0
  6
CONTINUOUS
 62
     7
 10
96.09610194
 20
119.62622506
 30
0.0
 11
94.82084414
 21
119.32887742
 31
0.0
  0
LINE
  5
27B
  8
0
  6
CONTINUOUS
 62
     7
 10
118.9487588
 20
106.43223824
 30
0.0
 11
118.48749988
 21
107.657773
 31
0.0
  0
LINE
  5
27C
  8
0
  6
CONTINUOUS
 62
     7
 10
84.12442662
 20
87.81824448
 30
0.0
 11
84.95514124
 21
86.80601384
 31
0.0
  0
LINE
  5
27D
  8
0
  6
CONTINUOUS
 62
     7
 10
115.04486008
 20
113.19398748
 30
0.0
 11
114.1497209
 21
114.1497209
 31
0.0
  0
LINE
  5
27E
  8
0
  6
CONTINUOUS
 62
     7
 10
111.11736476
 20
116.63830876
 30
0.0
 11
110.00536292
 21
117.32979582
 31
0.0
  0
LINE
  5
27F
  8
0
  6
CONTINUOUS
 62
     7
 10
105.17915718
 20
80.6711239
 30
0.0
 11
106.43223824
 21
81.05124252
 31
0.0
  0
LINE
  5
280
  8
0
  6
CONTINUOUS
 62
     7
 10
101.3087636
 20
119.96788046
 30
0.0
 11
100.00000066
 21
120.01072518
 31
0.0
  0
LINE
  5
281
  8
0
  6
CONTINUOUS
 62
     7
 10
79.98927614
 20
100.00000066
 30
0.0
 11
80.03212086
 21
98.69123772
 31
0.0
  0
LINE
  5
282
  8
0
  6
CONTINUOUS
 62
     7
 10
103.90389938
 20
80.37377626
 30
0.0
 11
105.17915718
 21
80.6711239
 31
0.0
  0
LINE
  5
283
  8
0
  6
CONTINUOUS
 62
     7
 10
101.04419974
 20
81.17045488
 30
0.0
 11
101.04419974
 21
80.02726692
 31
0.0
  0
LINE
  5
284
  8
0
  6
CONTINUOUS
 62
     7
 10
101.04419974
 20
80.02726692
 30
0.0
 11
101.04439786
 21
80.02346454
 31
0.0
  0
LINE
  5
285
  8
0
  6
CONTINUOUS
 62
     7
 10
114.1497209
 20
114.1497209
 30
0.0
 11
113.19398748
 21
115.04486008
 31
0.0
  0
LINE
  5
286
  8
0
  6
CONTINUOUS
 62
     7
 10
112.18175684
 20
84.12442662
 30
0.0
 11
113.19398748
 21
84.95514124
 31
0.0
  0
LINE
  5
287
  8
0
  6
CONTINUOUS
 62
     7
 10
112.18175684
 20
115.8755747
 30
0.0
 11
111.11736476
 21
116.63830876
 31
0.0
  0
LINE
  5
288
  8
0
  6
CONTINUOUS
 62
     7
 10
106.43223824
 20
118.9487588
 30
0.0
 11
105.17915718
 21
119.32887742
 31
0.0
  0
LINE
  5
289
  8
0
  6
CONTINUOUS
 62
     7
 10
86.12500174
 20
91.74999938
 30
0.0
 11
85.5750003
 21
91.74999938
 31
0.0
  0
LINE
  5
28A
  8
0
  6
CONTINUOUS
 62
     7
 10
86.12500174
 20
91.99999888
 30
0.0
 11
85.5750003
 21
91.99999888
 31
0.0
  0
LINE
  5
28B
  8
0
  6
CONTINUOUS
 62
     7
 10
86.12500174
 20
92.79999982
 30
0.0
 11
85.5750003
 21
92.79999982
 31
0.0
  0
LINE
  5
28C
  8
0
  6
CONTINUOUS
 62
     7
 10
85.5750003
 20
92.55000032
 30
0.0
 11
86.12500174
 21
92.55000032
 31
0.0
  0
LINE
  5
28D
  8
0
  6
CONTINUOUS
 62
     7
 10
86.12500174
 20
92.79999982
 30
0.0
 11
86.12500174
 21
91.74999938
 31
0.0
  0
LINE
  5
28E
  8
0
  6
CONTINUOUS
 62
     7
 10
85.5750003
 20
91.74999938
 30
0.0
 11
85.5750003
 21
92.79999982
 31
0.0
  0
LINE
  5
28F
  8
0
  6
CONTINUOUS
 62
     7
 10
92.93472142
 20
94.83681312
 30
0.0
 11
107.87179594
 21
96.20933768
 31
0.0
  0
LINE
  5
290
  8
0
  6
CONTINUOUS
 62
     7
 10
91.92820578
 20
105.79066472
 30
0.0
 11
92.93472142
 21
94.83681312
 31
0.0
  0
LINE
  5
291
  8
0
  6
CONTINUOUS
 62
     7
 10
106.8652803
 20
107.16318928
 30
0.0
 11
91.92820578
 21
105.79066472
 31
0.0
  0
LINE
  5
292
  8
0
  6
CONTINUOUS
 62
     7
 10
107.87179594
 20
96.20933768
 30
0.0
 11
106.8652803
 21
107.16318928
 31
0.0
  0
LINE
  5
293
  8
0
  6
CONTINUOUS
 62
     7
 10
113.1299998
 20
102.16099964
 30
0.0
 11
114.02199954
 21
102.16099964
 31
0.0
  0
LINE
  5
294
  8
0
  6
CONTINUOUS
 62
     7
 10
114.02199954
 20
104.9209992
 30
0.0
 11
114.02199954
 21
102.16099964
 31
0.0
  0
LINE
  5
295
  8
0
  6
CONTINUOUS
 62
     7
 10
113.1299998
 20
104.92000098
 30
0.0
 11
114.02199954
 21
104.9209992
 31
0.0
  0
LINE
  5
296
  8
0
  6
CONTINUOUS
 62
     7
 10
113.1299998
 20
102.16099964
 30
0.0
 11
113.1299998
 21
104.92000098
 31
0.0
  0
LINE
  5
297
  8
0
  6
CONTINUOUS
 62
     7
 10
116.975001
 20
101.6999998
 30
0.0
 11
114.57500072
 21
101.6999998
 31
0.0
  0
LINE
  5
298
  8
0
  6
CONTINUOUS
 62
     7
 10
114.57500072
 20
106.60000016
 30
0.0
 11
116.975001
 21
106.60000016
 31
0.0
  0
LINE
  5
299
  8
0
  6
CONTINUOUS
 62
     7
 10
114.57500072
 20
101.6999998
 30
0.0
 11
114.57500072
 21
106.60000016
 31
0.0
  0
LINE
  5
29A
  8
0
  6
CONTINUOUS
 62
     7
 10
116.975001
 20
106.60000016
 30
0.0
 11
116.975001
 21
101.6999998
 31
0.0
  0
LINE
  5
29B
  8
0
  6
CONTINUOUS
 62
     7
 10
112.891188706
 20
95.4193526966
 30
0.0
 11
112.891188706
 21
97.4193537766
 31
0.0
  0
LINE
  5
29C
  8
0
  6
CONTINUOUS
 62
     7
 10
114.891189786
 20
97.4193537766
 30
0.0
 11
114.891189786
 21
95.4193526966
 31
0.0
  0
LINE
  5
29D
  8
0
  6
CONTINUOUS
 62
     7
 10
114.891189786
 20
95.4193526966
 30
0.0
 11
112.891188706
 21
95.4193526966
 31
0.0
  0
LINE
  5
29E
  8
0
  6
CONTINUOUS
 62
     7
 10
112.891188706
 20
97.4193537766
 30
0.0
 11
114.891189786
 21
97.4193537766
 31
0.0
  0
LINE
  5
29F
  8
0
  6
CONTINUOUS
 62
     7
 10
117.57999852
 20
102.43600036
 30
0.0
 11
117.57999852
 21
105.1950017
 31
0.0
  0
LINE
  5
2A0
  8
0
  6
CONTINUOUS
 62
     7
 10
117.57999852
 20
105.1950017
 30
0.0
 11
118.47199826
 21
105.19599992
 31
0.0
  0
LINE
  5
2A1
  8
0
  6
CONTINUOUS
 62
     7
 10
118.47199826
 20
105.19599992
 30
0.0
 11
118.47199826
 21
102.43600036
 31
0.0
  0
LINE
  5
2A2
  8
0
  6
CONTINUOUS
 62
     7
 10
117.57999852
 20
102.43600036
 30
0.0
 11
118.47199826
 21
102.43600036
 31
0.0
  0
LINE
  5
2A3
  8
0
  6
CONTINUOUS
 62
     7
 10
112.50499978
 20
99.52999906
 30
0.0
 11
112.50400156
 21
100.4219988
 31
0.0
  0
LINE
  5
2A4
  8
0
  6
CONTINUOUS
 62
     7
 10
115.26400112
 20
99.52999906
 30
0.0
 11
112.50499978
 21
99.52999906
 31
0.0
  0
LINE
  5
2A5
  8
0
  6
CONTINUOUS
 62
     7
 10
112.50400156
 20
100.4219988
 30
0.0
 11
115.26400112
 21
100.4219988
 31
0.0
  0
LINE
  5
2A6
  8
0
  6
CONTINUOUS
 62
     7
 10
115.26400112
 20
99.52999906
 30
0.0
 11
115.26400112
 21
100.4219988
 31
0.0
  0
LINE
  5
2A7
  8
0
  6
CONTINUOUS
 62
     7
 10
114.21722394
 20
108.85327226
 30
0.0
 11
114.21722394
 21
107.80327182
 31
0.0
  0
LINE
  5
2A8
  8
0
  6
CONTINUOUS
 62
     7
 10
114.21722394
 20
107.80327182
 30
0.0
 11
113.6672225
 21
107.80327182
 31
0.0
  0
LINE
  5
2A9
  8
0
  6
CONTINUOUS
 62
     7
 10
113.6672225
 20
107.80327182
 30
0.0
 11
113.6672225
 21
108.85327226
 31
0.0
  0
LINE
  5
2AA
  8
0
  6
CONTINUOUS
 62
     7
 10
114.21722394
 20
108.05327132
 30
0.0
 11
113.6672225
 21
108.05327132
 31
0.0
  0
LINE
  5
2AB
  8
0
  6
CONTINUOUS
 62
     7
 10
114.63043368
 20
107.5288172
 30
0.0
 11
114.63043368
 21
108.87888816
 31
0.0
  0
LINE
  5
2AC
  8
0
  6
CONTINUOUS
 62
     7
 10
115.43043208
 20
108.87888816
 30
0.0
 11
114.63043368
 21
108.87888816
 31
0.0
  0
LINE
  5
2AD
  8
0
  6
CONTINUOUS
 62
     7
 10
115.43043208
 20
108.87888816
 30
0.0
 11
115.43043208
 21
108.62888612
 31
0.0
  0
LINE
  5
2AE
  8
0
  6
CONTINUOUS
 62
     7
 10
114.63043368
 20
108.62888612
 30
0.0
 11
115.43047272
 21
108.62888612
 31
0.0
  0
LINE
  5
2AF
  8
0
  6
CONTINUOUS
 62
     7
 10
115.43051336
 20
107.52877656
 30
0.0
 11
114.63047432
 21
107.52877656
 31
0.0
  0
LINE
  5
2B0
  8
0
  6
CONTINUOUS
 62
     7
 10
114.63051496
 20
107.52877656
 30
0.0
 11
114.63051496
 21
107.27877452
 31
0.0
  0
LINE
  5
2B1
  8
0
  6
CONTINUOUS
 62
     7
 10
115.43051336
 20
108.62884548
 30
0.0
 11
115.43051336
 21
107.27877452
 31
0.0
  0
LINE
  5
2B2
  8
0
  6
CONTINUOUS
 62
     7
 10
115.43051336
 20
107.27877452
 30
0.0
 11
114.63051496
 21
107.27877452
 31
0.0
  0
LINE
  5
2B3
  8
0
  6
CONTINUOUS
 62
     7
 10
116.10125878
 20
99.69277242
 30
0.0
 11
116.10125878
 21
100.24277386
 31
0.0
  0
LINE
  5
2B4
  8
0
  6
CONTINUOUS
 62
     7
 10
115.85125928
 20
100.24277386
 30
0.0
 11
115.85125928
 21
99.69277242
 31
0.0
  0
LINE
  5
2B5
  8
0
  6
CONTINUOUS
 62
     7
 10
115.85125928
 20
100.24277386
 30
0.0
 11
116.90125972
 21
100.24277386
 31
0.0
  0
LINE
  5
2B6
  8
0
  6
CONTINUOUS
 62
     7
 10
116.90125972
 20
100.24277386
 30
0.0
 11
116.90125972
 21
99.69277242
 31
0.0
  0
LINE
  5
2B7
  8
0
  6
CONTINUOUS
 62
     7
 10
116.90125972
 20
99.69277242
 30
0.0
 11
115.85125928
 21
99.69277242
 31
0.0
  0
LINE
  5
2B8
  8
0
  6
CONTINUOUS
 62
     7
 10
116.65126022
 20
100.24277386
 30
0.0
 11
116.65126022
 21
99.69277242
 31
0.0
  0
LINE
  5
2B9
  8
0
  6
CONTINUOUS
 62
     7
 10
117.17378902
 20
100.6079903
 30
0.0
 11
115.82371806
 21
100.6079903
 31
0.0
  0
LINE
  5
2BA
  8
0
  6
CONTINUOUS
 62
     7
 10
115.82371806
 20
101.4079887
 30
0.0
 11
115.82371806
 21
100.6079903
 31
0.0
  0
LINE
  5
2BB
  8
0
  6
CONTINUOUS
 62
     7
 10
115.82371806
 20
101.4079887
 30
0.0
 11
116.0737201
 21
101.4079887
 31
0.0
  0
LINE
  5
2BC
  8
0
  6
CONTINUOUS
 62
     7
 10
116.0737201
 20
100.6079903
 30
0.0
 11
116.0737201
 21
101.40802934
 31
0.0
  0
LINE
  5
2BD
  8
0
  6
CONTINUOUS
 62
     7
 10
117.17382966
 20
100.60807158
 30
0.0
 11
117.4238317
 21
100.60807158
 31
0.0
  0
LINE
  5
2BE
  8
0
  6
CONTINUOUS
 62
     7
 10
117.17382966
 20
101.40806998
 30
0.0
 11
117.17382966
 21
100.60803094
 31
0.0
  0
LINE
  5
2BF
  8
0
  6
CONTINUOUS
 62
     7
 10
116.07376074
 20
101.40806998
 30
0.0
 11
117.4238317
 21
101.40806998
 31
0.0
  0
LINE
  5
2C0
  8
0
  6
CONTINUOUS
 62
     7
 10
117.4238317
 20
101.40806998
 30
0.0
 11
117.4238317
 21
100.60807158
 31
0.0
  0
LINE
  5
2C1
  8
0
  6
CONTINUOUS
 62
     7
 10
91.5310461671
 20
84.5306482025
 30
0.0
 11
92.1710461671
 21
84.5306482025
 31
0.0
  0
LINE
  5
2C2
  8
0
  6
CONTINUOUS
 62
     7
 10
92.0710461671
 20
84.4306482025
 30
0.0
 11
92.1710461671
 21
84.5306482025
 31
0.0
  0
LINE
  5
2C3
  8
0
  6
CONTINUOUS
 62
     7
 10
91.6310461671
 20
84.4306482025
 30
0.0
 11
92.0710461671
 21
84.4306482025
 31
0.0
  0
LINE
  5
2C4
  8
0
  6
CONTINUOUS
 62
     7
 10
91.5310461671
 20
84.5306482025
 30
0.0
 11
91.6310461671
 21
84.4306482025
 31
0.0
  0
LINE
  5
2C5
  8
0
  6
CONTINUOUS
 62
     7
 10
91.6310461671
 20
83.9906482025
 30
0.0
 11
91.6310461671
 21
84.4306482025
 31
0.0
  0
LINE
  5
2C6
  8
0
  6
CONTINUOUS
 62
     7
 10
92.0710461671
 20
84.4306482025
 30
0.0
 11
92.0710461671
 21
83.9906482025
 31
0.0
  0
LINE
  5
2C7
  8
0
  6
CONTINUOUS
 62
     7
 10
92.0710461671
 20
83.9906482025
 30
0.0
 11
91.6310461671
 21
83.9906482025
 31
0.0
  0
LINE
  5
2C8
  8
0
  6
CONTINUOUS
 62
     7
 10
92.1710461671
 20
84.5306482025
 30
0.0
 11
92.1710461671
 21
83.8906482025
 31
0.0
  0
LINE
  5
2C9
  8
0
  6
CONTINUOUS
 62
     7
 10
92.0710461671
 20
83.9906482025
 30
0.0
 11
92.1710461671
 21
83.8906482025
 31
0.0
  0
LINE
  5
2CA
  8
0
  6
CONTINUOUS
 62
     7
 10
92.1710461671
 20
83.8906482025
 30
0.0
 11
91.5310461671
 21
83.8906482025
 31
0.0
  0
LINE
  5
2CB
  8
0
  6
CONTINUOUS
 62
     7
 10
91.5310461671
 20
83.8906482025
 30
0.0
 11
91.6310461671
 21
83.9906482025
 31
0.0
  0
LINE
  5
2CC
  8
0
  6
CONTINUOUS
 62
     7
 10
91.5310461671
 20
83.8906482025
 30
0.0
 11
91.5310461671
 21
84.5306482025
 31
0.0
  0
LINE
  5
2CD
  8
0
  6
CONTINUOUS
 62
     7
 10
92.9210461671
 20
85.2806482025
 30
0.0
 11
90.7810461671
 21
85.2806482025
 31
0.0
  0
LINE
  5
2CE
  8
0
  6
CONTINUOUS
 62
     7
 10
92.9210461671
 20
83.1406482025
 30
0.0
 11
92.9210461671
 21
85.2806482025
 31
0.0
  0
LINE
  5
2CF
  8
0
  6
CONTINUOUS
 62
     7
 10
92.9210461671
 20
83.1406482025
 30
0.0
 11
90.7810461671
 21
83.1406482025
 31
0.0
  0
LINE
  5
2D0
  8
0
  6
CONTINUOUS
 62
     7
 10
90.7810461671
 20
85.2806482025
 30
0.0
 11
90.7810461671
 21
83.1406482025
 31
0.0
  0
LINE
  5
2D1
  8
0
  6
CONTINUOUS
 62
     7
 10
93.1210461671
 20
85.4806482025
 30
0.0
 11
92.9210461671
 21
85.2806482025
 31
0.0
  0
LINE
  5
2D2
  8
0
  6
CONTINUOUS
 62
     7
 10
90.7810461671
 20
85.2806482025
 30
0.0
 11
90.5810461671
 21
85.4806482025
 31
0.0
  0
LINE
  5
2D3
  8
0
  6
CONTINUOUS
 62
     7
 10
93.1210461671
 20
82.9406482025
 30
0.0
 11
92.9210461671
 21
83.1406482025
 31
0.0
  0
LINE
  5
2D4
  8
0
  6
CONTINUOUS
 62
     7
 10
90.7810461671
 20
83.1406482025
 30
0.0
 11
90.5810461671
 21
82.9406482025
 31
0.0
  0
LINE
  5
2D5
  8
0
  6
CONTINUOUS
 62
     7
 10
90.5810461671
 20
85.4806482025
 30
0.0
 11
90.5810461671
 21
82.9406482025
 31
0.0
  0
LINE
  5
2D6
  8
0
  6
CONTINUOUS
 62
     7
 10
103.5677990271
 20
92.1614599025
 30
0.0
 11
103.5677990271
 21
92.6014599025
 31
0.0
  0
LINE
  5
2D7
  8
0
  6
CONTINUOUS
 62
     7
 10
103.4677990271
 20
92.0614599025
 30
0.0
 11
103.5677990271
 21
92.1614599025
 31
0.0
  0
LINE
  5
2D8
  8
0
  6
CONTINUOUS
 62
     7
 10
103.4677990271
 20
92.0614599025
 30
0.0
 11
103.4677990271
 21
92.7014599025
 31
0.0
  0
LINE
  5
2D9
  8
0
  6
CONTINUOUS
 62
     7
 10
103.4677990271
 20
92.7014599025
 30
0.0
 11
103.5677990271
 21
92.6014599025
 31
0.0
  0
LINE
  5
2DA
  8
0
  6
CONTINUOUS
 62
     7
 10
103.5677990271
 20
92.6014599025
 30
0.0
 11
104.0077990271
 21
92.6014599025
 31
0.0
  0
LINE
  5
2DB
  8
0
  6
CONTINUOUS
 62
     7
 10
104.0077990271
 20
92.6014599025
 30
0.0
 11
104.0077990271
 21
92.1614599025
 31
0.0
  0
LINE
  5
2DC
  8
0
  6
CONTINUOUS
 62
     7
 10
104.0077990271
 20
92.1614599025
 30
0.0
 11
103.5677990271
 21
92.1614599025
 31
0.0
  0
LINE
  5
2DD
  8
0
  6
CONTINUOUS
 62
     7
 10
104.1077990271
 20
92.7014599025
 30
0.0
 11
104.1077990271
 21
92.0614599025
 31
0.0
  0
LINE
  5
2DE
  8
0
  6
CONTINUOUS
 62
     7
 10
104.0077990271
 20
92.1614599025
 30
0.0
 11
104.1077990271
 21
92.0614599025
 31
0.0
  0
LINE
  5
2DF
  8
0
  6
CONTINUOUS
 62
     7
 10
104.0077990271
 20
92.6014599025
 30
0.0
 11
104.1077990271
 21
92.7014599025
 31
0.0
  0
LINE
  5
2E0
  8
0
  6
CONTINUOUS
 62
     7
 10
104.1077990271
 20
92.0614599025
 30
0.0
 11
103.4677990271
 21
92.0614599025
 31
0.0
  0
LINE
  5
2E1
  8
0
  6
CONTINUOUS
 62
     7
 10
103.4677990271
 20
92.7014599025
 30
0.0
 11
104.1077990271
 21
92.7014599025
 31
0.0
  0
LINE
  5
2E2
  8
0
  6
CONTINUOUS
 62
     7
 10
104.8577990271
 20
93.4514599025
 30
0.0
 11
102.7177990271
 21
93.4514599025
 31
0.0
  0
LINE
  5
2E3
  8
0
  6
CONTINUOUS
 62
     7
 10
104.8577990271
 20
91.3114599025
 30
0.0
 11
104.8577990271
 21
93.4514599025
 31
0.0
  0
LINE
  5
2E4
  8
0
  6
CONTINUOUS
 62
     7
 10
104.8577990271
 20
91.3114599025
 30
0.0
 11
102.7177990271
 21
91.3114599025
 31
0.0
  0
LINE
  5
2E5
  8
0
  6
CONTINUOUS
 62
     7
 10
102.7177990271
 20
93.4514599025
 30
0.0
 11
102.7177990271
 21
91.3114599025
 31
0.0
  0
LINE
  5
2E6
  8
0
  6
CONTINUOUS
 62
     7
 10
105.0577990271
 20
93.6514599025
 30
0.0
 11
104.8577990271
 21
93.4514599025
 31
0.0
  0
LINE
  5
2E7
  8
0
  6
CONTINUOUS
 62
     7
 10
105.0577990271
 20
93.6514599025
 30
0.0
 11
105.0577990271
 21
91.1114599025
 31
0.0
  0
LINE
  5
2E8
  8
0
  6
CONTINUOUS
 62
     7
 10
105.0577990271
 20
91.1114599025
 30
0.0
 11
104.8577990271
 21
91.3114599025
 31
0.0
  0
LINE
  5
2E9
  8
0
  6
CONTINUOUS
 62
     7
 10
102.7177990271
 20
93.4514599025
 30
0.0
 11
102.5177990271
 21
93.6514599025
 31
0.0
  0
LINE
  5
2EA
  8
0
  6
CONTINUOUS
 62
     7
 10
107.5977990271
 20
93.6514599025
 30
0.0
 11
102.5177990271
 21
93.6514599025
 31
0.0
  0
LINE
  5
2EB
  8
0
  6
CONTINUOUS
 62
     7
 10
102.7177990271
 20
91.3114599025
 30
0.0
 11
102.5177990271
 21
91.1114599025
 31
0.0
  0
LINE
  5
2EC
  8
0
  6
CONTINUOUS
 62
     7
 10
102.5177990271
 20
93.6514599025
 30
0.0
 11
102.5177990271
 21
91.1114599025
 31
0.0
  0
LINE
  5
2ED
  8
0
  6
CONTINUOUS
 62
     7
 10
107.5977990271
 20
91.1114599025
 30
0.0
 11
102.5177990271
 21
91.1114599025
 31
0.0
  0
LINE
  5
2EE
  8
0
  6
CONTINUOUS
 62
     7
 10
106.0077990271
 20
92.7014599025
 30
0.0
 11
106.6477990271
 21
92.7014599025
 31
0.0
  0
LINE
  5
2EF
  8
0
  6
CONTINUOUS
 62
     7
 10
106.5477990271
 20
92.6014599025
 30
0.0
 11
106.6477990271
 21
92.7014599025
 31
0.0
  0
LINE
  5
2F0
  8
0
  6
CONTINUOUS
 62
     7
 10
106.1077990271
 20
92.6014599025
 30
0.0
 11
106.5477990271
 21
92.6014599025
 31
0.0
  0
LINE
  5
2F1
  8
0
  6
CONTINUOUS
 62
     7
 10
106.0077990271
 20
92.7014599025
 30
0.0
 11
106.1077990271
 21
92.6014599025
 31
0.0
  0
LINE
  5
2F2
  8
0
  6
CONTINUOUS
 62
     7
 10
106.6477990271
 20
92.7014599025
 30
0.0
 11
106.6477990271
 21
92.0614599025
 31
0.0
  0
LINE
  5
2F3
  8
0
  6
CONTINUOUS
 62
     7
 10
106.5477990271
 20
92.1614599025
 30
0.0
 11
106.6477990271
 21
92.0614599025
 31
0.0
  0
LINE
  5
2F4
  8
0
  6
CONTINUOUS
 62
     7
 10
106.5477990271
 20
92.6014599025
 30
0.0
 11
106.5477990271
 21
92.1614599025
 31
0.0
  0
LINE
  5
2F5
  8
0
  6
CONTINUOUS
 62
     7
 10
106.1077990271
 20
92.1614599025
 30
0.0
 11
106.1077990271
 21
92.6014599025
 31
0.0
  0
LINE
  5
2F6
  8
0
  6
CONTINUOUS
 62
     7
 10
106.5477990271
 20
92.1614599025
 30
0.0
 11
106.1077990271
 21
92.1614599025
 31
0.0
  0
LINE
  5
2F7
  8
0
  6
CONTINUOUS
 62
     7
 10
106.0077990271
 20
92.0614599025
 30
0.0
 11
106.1077990271
 21
92.1614599025
 31
0.0
  0
LINE
  5
2F8
  8
0
  6
CONTINUOUS
 62
     7
 10
106.0077990271
 20
92.0614599025
 30
0.0
 11
106.0077990271
 21
92.7014599025
 31
0.0
  0
LINE
  5
2F9
  8
0
  6
CONTINUOUS
 62
     7
 10
106.6477990271
 20
92.0614599025
 30
0.0
 11
106.0077990271
 21
92.0614599025
 31
0.0
  0
LINE
  5
2FA
  8
0
  6
CONTINUOUS
 62
     7
 10
107.5977990271
 20
93.6514599025
 30
0.0
 11
107.3977990271
 21
93.4514599025
 31
0.0
  0
LINE
  5
2FB
  8
0
  6
CONTINUOUS
 62
     7
 10
107.3977990271
 20
93.4514599025
 30
0.0
 11
105.2577990271
 21
93.4514599025
 31
0.0
  0
LINE
  5
2FC
  8
0
  6
CONTINUOUS
 62
     7
 10
105.2577990271
 20
93.4514599025
 30
0.0
 11
105.0577990271
 21
93.6514599025
 31
0.0
  0
LINE
  5
2FD
  8
0
  6
CONTINUOUS
 62
     7
 10
105.2577990271
 20
91.3114599025
 30
0.0
 11
105.0577990271
 21
91.1114599025
 31
0.0
  0
LINE
  5
2FE
  8
0
  6
CONTINUOUS
 62
     7
 10
105.2577990271
 20
93.4514599025
 30
0.0
 11
105.2577990271
 21
91.3114599025
 31
0.0
  0
LINE
  5
2FF
  8
0
  6
CONTINUOUS
 62
     7
 10
107.3977990271
 20
91.3114599025
 30
0.0
 11
107.3977990271
 21
93.4514599025
 31
0.0
  0
LINE
  5
300
  8
0
  6
CONTINUOUS
 62
     7
 10
107.3977990271
 20
91.3114599025
 30
0.0
 11
105.2577990271
 21
91.3114599025
 31
0.0
  0
LINE
  5
301
  8
0
  6
CONTINUOUS
 62
     7
 10
107.5977990271
 20
91.1114599025
 30
0.0
 11
107.3977990271
 21
91.3114599025
 31
0.0
  0
LINE
  5
302
  8
0
  6
CONTINUOUS
 62
     7
 10
107.5977990271
 20
91.1114599025
 30
0.0
 11
107.5977990271
 21
93.6514599025
 31
0.0
  0
ARC
  5
303
  8
0
  6
CONTINUOUS
 62
     7
 10
93.4101539792
 20
114.2443341432
 30
0.0
 40
0.0249999999999915
 50
180.0
 51
270.0
  0
ARC
  5
304
  8
0
  6
CONTINUOUS
 62
     7
 10
93.4101539792
 20
117.0163341432
 30
0.0
 40
0.0249999999999915
 50
90.0
 51
180.0
  0
ARC
  5
305
  8
0
  6
CONTINUOUS
 62
     7
 10
95.3921539792
 20
117.0163341432
 30
0.0
 40
0.0249999999999773
 50
360.0
 51
90.0000000001
  0
ARC
  5
306
  8
0
  6
CONTINUOUS
 62
     7
 10
95.3921539792
 20
114.2443341432
 30
0.0
 40
0.0250000000000341
 50
270.0000000001
 51
359.9999999999
  0
ARC
  5
307
  8
0
  6
CONTINUOUS
 62
     7
 10
93.4101539792
 20
114.2443341432
 30
0.0
 40
0.2790000000000248
 50
180.0
 51
270.0
  0
ARC
  5
308
  8
0
  6
CONTINUOUS
 62
     7
 10
93.4101539792
 20
117.0163341432
 30
0.0
 40
0.2789999999999822
 50
90.0
 51
180.0
  0
ARC
  5
309
  8
0
  6
CONTINUOUS
 62
     7
 10
95.3921539792
 20
117.0163341432
 30
0.0
 40
0.2789999999999964
 50
0.0
 51
90.0
  0
ARC
  5
30A
  8
0
  6
CONTINUOUS
 62
     7
 10
95.3921539792
 20
114.2443341432
 30
0.0
 40
0.2789999999999822
 50
270.0
 51
0.0
  0
ARC
  5
30B
  8
0
  6
CONTINUOUS
 62
     7
 10
83.3089682065
 20
105.4541660705
 30
0.0
 40
0.0250000000000057
 50
180.0
 51
270.0
  0
ARC
  5
30C
  8
0
  6
CONTINUOUS
 62
     7
 10
83.3089682065
 20
105.4541660705
 30
0.0
 40
0.2790000000000248
 50
180.0
 51
270.0
  0
ARC
  5
30D
  8
0
  6
CONTINUOUS
 62
     7
 10
86.0809682065
 20
105.4541660705
 30
0.0
 40
0.0250000000000057
 50
270.0
 51
0.0
  0
ARC
  5
30E
  8
0
  6
CONTINUOUS
 62
     7
 10
86.0809682065
 20
105.4541660705
 30
0.0
 40
0.279000000000039
 50
270.0
 51
0.0
  0
ARC
  5
30F
  8
0
  6
CONTINUOUS
 62
     7
 10
83.3089682065
 20
107.4361660705
 30
0.0
 40
0.2789999999999964
 50
90.0
 51
180.0
  0
ARC
  5
310
  8
0
  6
CONTINUOUS
 62
     7
 10
83.3089682065
 20
107.4361660705
 30
0.0
 40
0.0250000000000057
 50
90.0
 51
180.0
  0
ARC
  5
311
  8
0
  6
CONTINUOUS
 62
     7
 10
86.0809682065
 20
107.4361660705
 30
0.0
 40
0.0249999999999915
 50
360.0
 51
90.0
  0
ARC
  5
312
  8
0
  6
CONTINUOUS
 62
     7
 10
86.0809682065
 20
107.4361660705
 30
0.0
 40
0.2789999999999679
 50
360.0
 51
90.0
  0
ARC
  5
313
  8
0
  6
CONTINUOUS
 62
     7
 10
111.8207043965
 20
90.800083358
 30
0.0
 40
0.0250000000000341
 50
90.0
 51
179.9999999999
  0
ARC
  5
314
  8
0
  6
CONTINUOUS
 62
     7
 10
114.5927043965
 20
90.800083358
 30
0.0
 40
0.0250000000000341
 50
0.0
 51
90.0
  0
ARC
  5
315
  8
0
  6
CONTINUOUS
 62
     7
 10
114.5927043965
 20
88.818083358
 30
0.0
 40
0.0250000000000199
 50
270.0
 51
0.0
  0
ARC
  5
316
  8
0
  6
CONTINUOUS
 62
     7
 10
111.8207043965
 20
88.818083358
 30
0.0
 40
0.0250000000000199
 50
180.0
 51
270.0
  0
ARC
  5
317
  8
0
  6
CONTINUOUS
 62
     7
 10
111.8207043965
 20
88.818083358
 30
0.0
 40
0.2790000000000248
 50
180.0
 51
270.0
  0
ARC
  5
318
  8
0
  6
CONTINUOUS
 62
     7
 10
114.5927043965
 20
88.818083358
 30
0.0
 40
0.279000000000039
 50
270.0
 51
0.0
  0
ARC
  5
319
  8
0
  6
CONTINUOUS
 62
     7
 10
111.8207043965
 20
90.800083358
 30
0.0
 40
0.2790000000000248
 50
90.0
 51
180.0
  0
ARC
  5
31A
  8
0
  6
CONTINUOUS
 62
     7
 10
114.5927043965
 20
90.800083358
 30
0.0
 40
0.279000000000039
 50
0.0
 51
90.0
  0
ARC
  5
31B
  8
0
  6
CONTINUOUS
 62
     7
 10
83.56738176
 20
106.52233712
 30
0.0
 40
0.8499983000000377
 50
152.2754273993
 51
207.7245726007
  0
ENDSEC
  0
EOF
