  0
SECTION
  2
HEADER
  9
$ACADVER
  1
AC1009
  9
$DWGCODEPAGE
  3
ansi_1252
  9
$INSBASE
 10
0.0
 20
0.0
 30
0.0
  9
$EXTMIN
 10
-19.3586954643
 20
0.0046746373
 30
0.0
  9
$EXTMAX
 10
19.3413045357
 20
18.3046746373
 30
0.0
  9
$LIMMIN
 10
0.0
 20
0.0
  9
$LIMMAX
 10
420.0
 20
297.0
  9
$ORTHOMODE
 70
     0
  9
$REGENMODE
 70
     1
  9
$FILLMODE
 70
     1
  9
$QTEXTMODE
 70
     0
  9
$MIRRTEXT
 70
     1
  9
$DRAGMODE
 70
     2
  9
$LTSCALE
 40
1.0
  9
$OSMODE
 70
    37
  9
$ATTMODE
 70
     1
  9
$TEXTSIZE
 40
3.5
  9
$TRACEWID
 40
1.0
  9
$TEXTSTYLE
  7
STANDARD
  9
$CLAYER
  8
0
  9
$CELTYPE
  6
BYLAYER
  9
$CECOLOR
 62
   256
  9
$DIMSCALE
 40
1.0
  9
$DIMASZ
 40
3.556
  9
$DIMEXO
 40
1.0
  9
$DIMDLI
 40
3.75
  9
$DIMRND
 40
0.0
  9
$DIMDLE
 40
0.0
  9
$DIMEXE
 40
1.0
  9
$DIMTP
 40
0.0
  9
$DIMTM
 40
0.0
  9
$DIMTXT
 40
3.5
  9
$DIMCEN
 40
2.5
  9
$DIMTSZ
 40
0.0
  9
$DIMTOL
 70
     0
  9
$DIMLIM
 70
     0
  9
$DIMTIH
 70
     1
  9
$DIMTOH
 70
     1
  9
$DIMSE1
 70
     0
  9
$DIMSE2
 70
     0
  9
$DIMTAD
 70
     1
  9
$DIMZIN
 70
     0
  9
$DIMBLK
  1

  9
$DIMASO
 70
     1
  9
$DIMSHO
 70
     1
  9
$DIMPOST
  1

  9
$DIMAPOST
  1

  9
$DIMALT
 70
     0
  9
$DIMALTD
 70
     3
  9
$DIMALTF
 40
0.0393700787
  9
$DIMLFAC
 40
1.0
  9
$DIMTOFL
 70
     1
  9
$DIMTVP
 40
0.0
  9
$DIMTIX
 70
     0
  9
$DIMSOXD
 70
     0
  9
$DIMSAH
 70
     0
  9
$DIMBLK1
  1

  9
$DIMBLK2
  1

  9
$DIMSTYLE
  2
ISO-25
  9
$DIMCLRD
 70
     0
  9
$DIMCLRE
 70
     0
  9
$DIMCLRT
 70
     0
  9
$DIMTFAC
 40
1.0
  9
$DIMGAP
 40
1.524
  9
$LUNITS
 70
     2
  9
$LUPREC
 70
     2
  9
$SKETCHINC
 40
1.0
  9
$FILLETRAD
 40
10.0
  9
$AUNITS
 70
     0
  9
$AUPREC
 70
     2
  9
$MENU
  1
.
  9
$ELEVATION
 40
0.0
  9
$PELEVATION
 40
0.0
  9
$THICKNESS
 40
0.0
  9
$LIMCHECK
 70
     0
  9
$CHAMFERA
 40
10.0
  9
$CHAMFERB
 40
10.0
  9
$SKPOLY
 70
     0
  9
$TDCREATE
 40
2456825.659879248
  9
$TDUPDATE
 40
2456825.660426991
  9
$TDINDWG
 40
0.0000000116
  9
$TDUSRTIMER
 40
0.0000000116
  9
$USRTIMER
 70
     1
  9
$ANGBASE
 50
0.0
  9
$ANGDIR
 70
     0
  9
$PDMODE
 70
     0
  9
$PDSIZE
 40
-1.0
  9
$PLINEWID
 40
0.0
  9
$COORDS
 70
     1
  9
$SPLFRAME
 70
     0
  9
$SPLINETYPE
 70
     6
  9
$SPLINESEGS
 70
     8
  9
$ATTDIA
 70
     0
  9
$ATTREQ
 70
     1
  9
$HANDLING
 70
     1
  9
$HANDSEED
  5
10AD
  9
$SURFTAB1
 70
     6
  9
$SURFTAB2
 70
     6
  9
$SURFTYPE
 70
     6
  9
$SURFU
 70
     6
  9
$SURFV
 70
     6
  9
$UCSNAME
  2

  9
$UCSORG
 10
0.0
 20
0.0
 30
0.0
  9
$UCSXDIR
 10
1.0
 20
0.0
 30
0.0
  9
$UCSYDIR
 10
0.0
 20
1.0
 30
0.0
  9
$PUCSNAME
  2

  9
$PUCSORG
 10
0.0
 20
0.0
 30
0.0
  9
$PUCSXDIR
 10
1.0
 20
0.0
 30
0.0
  9
$PUCSYDIR
 10
0.0
 20
1.0
 30
0.0
  9
$USERI1
 70
     0
  9
$USERI2
 70
     0
  9
$USERI3
 70
     0
  9
$USERI4
 70
     0
  9
$USERI5
 70
     0
  9
$USERR1
 40
0.0
  9
$USERR2
 40
0.0
  9
$USERR3
 40
0.0
  9
$USERR4
 40
0.0
  9
$USERR5
 40
0.0
  9
$WORLDVIEW
 70
     1
  9
$SHADEDGE
 70
     3
  9
$SHADEDIF
 70
    70
  9
$TILEMODE
 70
     1
  9
$MAXACTVP
 70
    64
  9
$PLIMCHECK
 70
     0
  9
$PEXTMIN
 10
1.0000000000E+20
 20
1.0000000000E+20
 30
1.0000000000E+20
  9
$PEXTMAX
 10
-1.0000000000E+20
 20
-1.0000000000E+20
 30
-1.0000000000E+20
  9
$PLIMMIN
 10
0.0
 20
0.0
  9
$PLIMMAX
 10
420.0
 20
297.0
  9
$UNITMODE
 70
     0
  9
$VISRETAIN
 70
     1
  9
$PLINEGEN
 70
     0
  9
$PSLTSCALE
 70
     1
  0
ENDSEC
  0
SECTION
  2
TABLES
  0
TABLE
  2
VPORT
 70
     1
  0
VPORT
  2
*ACTIVE
 70
     0
 10
0.0
 20
0.0
 11
1.0
 21
1.0
 12
-0.0086954643
 22
9.1546746373
 13
0.0
 23
0.0
 14
10.0
 24
10.0
 15
10.0
 25
10.0
 16
0.0
 26
0.0
 36
1.0
 17
0.0
 27
0.0
 37
0.0
 40
18.666
 41
2.1147540984
 42
50.0
 43
0.0
 44
0.0
 50
0.0
 51
0.0
 71
     0
 72
   100
 73
     1
 74
     3
 75
     0
 76
     0
 77
     0
 78
     0
  0
ENDTAB
  0
TABLE
  2
LTYPE
 70
     6
  0
LTYPE
  2
CONTINUOUS
 70
     0
  3
Solid line
 72
    65
 73
     0
 40
0.0
  0
LTYPE
  2
HIDDEN
 70
     0
  3
Hidden __ __ __ __ __ __ __ __ __ __ __ __ __ __
 72
    65
 73
     2
 40
1.905
 49
1.27
 49
-0.635
  0
LTYPE
  2
PHANTOM
 70
     0
  3
Phantom ______  __  __  ______  __  __  ______
 72
    65
 73
     6
 40
12.7
 49
6.35
 49
-1.27
 49
1.27
 49
-1.27
 49
1.27
 49
-1.27
  0
LTYPE
  2
CENTER
 70
     0
  3
Center ____ _ ____ _ ____ _ ____ _ ____ _ ____
 72
    65
 73
     4
 40
10.16
 49
6.35
 49
-1.27
 49
1.27
 49
-1.27
  0
LTYPE
  2
CENTERX2
 70
     0
  3
Center (2x) ________  __  ________  __  _____
 72
    65
 73
     4
 40
20.32
 49
12.7
 49
-2.54
 49
2.54
 49
-2.54
  0
LTYPE
  2
DOT2
 70
     0
  3
Dot (.5x) ........................................
 72
    65
 73
     2
 40
0.635
 49
0.0
 49
-0.635
  0
ENDTAB
  0
TABLE
  2
LAYER
 70
     1
  0
LAYER
  2
0
 70
     0
 62
     7
  6
CONTINUOUS
  0
ENDTAB
  0
TABLE
  2
STYLE
 70
     1
  0
STYLE
  2
STANDARD
 70
     0
 40
0.0
 41
1.0
 50
0.0
 71
     0
 42
3.5
  3
txt
  4

  0
ENDTAB
  0
TABLE
  2
VIEW
 70
     0
  0
ENDTAB
  0
TABLE
  2
UCS
 70
     0
  0
ENDTAB
  0
TABLE
  2
APPID
 70
     1
  0
APPID
  2
ACAD
 70
     0
  0
ENDTAB
  0
TABLE
  2
DIMSTYLE
 70
     1
  0
DIMSTYLE
  2
ISO-25
 70
     0
  3

  4

  5

  6

  7

 40
1.0
 41
2.5
 42
0.625
 43
3.75
 44
1.25
 45
0.0
 46
0.0
 47
0.0
 48
0.0
140
2.5
141
2.5
142
0.0
143
0.0393700787
144
1.0
145
0.0
146
1.0
147
0.625
 71
     0
 72
     0
 73
     0
 74
     0
 75
     0
 76
     0
 77
     1
 78
     8
170
     0
171
     3
172
     1
173
     0
174
     0
175
     0
176
     0
177
     0
178
     0
  0
ENDTAB
  0
ENDSEC
  0
SECTION
  2
BLOCKS
  0
BLOCK
  8
0
  2
$MODEL_SPACE
 70
     0
 10
0.0
 20
0.0
 30
0.0
  3
$MODEL_SPACE
  1

  0
ENDBLK
  5
21
  8
0
  0
BLOCK
 67
     1
  8
0
  2
$PAPER_SPACE
 70
     0
 10
0.0
 20
0.0
 30
0.0
  3
$PAPER_SPACE
  1

  0
ENDBLK
  5
1D
 67
     1
  8
0
  0
ENDSEC
  0
SECTION
  2
ENTITIES
  0
CIRCLE
  5
94
  8
0
  6
CONTINUOUS
 62
     7
 10
-12.5100000043
 20
4.3
 30
0.0
 40
0.8499999999999979
  0
CIRCLE
  5
95
  8
0
  6
CONTINUOUS
 62
     7
 10
12.4899999957
 20
4.3
 30
0.0
 40
0.8500000000000014
  0
CIRCLE
  5
9A
  8
0
  6
CONTINUOUS
 62
     7
 10
-12.5100000043
 20
15.3
 30
0.0
 40
0.8499999999999961
  0
CIRCLE
  5
9C
  8
0
  6
CONTINUOUS
 62
     7
 10
12.4899999957
 20
15.3
 30
0.0
 40
0.8499999999999961
  0
POLYLINE
  5
19D
  8
0
  6
HIDDEN
 62
     7
 66
     1
 10
0.0
 20
0.0
 30
0.0
  0
VERTEX
  5
1090
  8
0
  6
HIDDEN
 62
     7
 10
-3.4137578553
 20
3.9046746373
 30
0.0
  0
VERTEX
  5
1091
  8
0
  6
HIDDEN
 62
     7
 10
-3.3879172633
 20
4.0847514786
 30
0.0
  0
VERTEX
  5
1092
  8
0
  6
HIDDEN
 62
     7
 10
-3.3579943925
 20
4.2431999542
 30
0.0
  0
VERTEX
  5
1093
  8
0
  6
HIDDEN
 62
     7
 10
-3.3245464571
 20
4.3770694869
 30
0.0
  0
VERTEX
  5
1094
  8
0
  6
HIDDEN
 62
     7
 10
-3.288196314
 20
4.4838672007
 30
0.0
  0
VERTEX
  5
1095
  8
0
  6
HIDDEN
 62
     7
 10
-3.2496208639
 20
4.5616043423
 30
0.0
  0
VERTEX
  5
1096
  8
0
  6
HIDDEN
 62
     7
 10
-3.2095384466
 20
4.6088333155
 30
0.0
  0
VERTEX
  5
1097
  8
0
  6
HIDDEN
 62
     7
 10
-3.1686954643
 20
4.6246746373
 30
0.0
  0
SEQEND
  5
10AC
  8
0
  6
HIDDEN
 62
     7
  0
POLYLINE
  5
1B5
  8
0
  6
HIDDEN
 62
     7
 66
     1
 10
0.0
 20
0.0
 30
0.0
  0
VERTEX
  5
1098
  8
0
  6
HIDDEN
 62
     7
 10
3.3904333204
 20
3.9046746373
 30
0.0
  0
VERTEX
  5
1099
  8
0
  6
HIDDEN
 62
     7
 10
3.4016095856
 20
3.909618767
 30
0.0
  0
VERTEX
  5
109A
  8
0
  6
HIDDEN
 62
     7
 10
3.4081074481
 20
3.9247845244
 30
0.0
  0
VERTEX
  5
109B
  8
0
  6
HIDDEN
 62
     7
 10
3.41067856
 20
3.9478989311
 30
0.0
  0
VERTEX
  5
109C
  8
0
  6
HIDDEN
 62
     7
 10
3.4112756352
 20
3.97736533
 30
0.0
  0
VERTEX
  5
109D
  8
0
  6
HIDDEN
 62
     7
 10
3.4113045357
 20
4.0046746373
 30
0.0
  0
SEQEND
  5
10AB
  8
0
  6
HIDDEN
 62
     7
  0
POLYLINE
  5
1B7
  8
0
  6
HIDDEN
 62
     7
 66
     1
 10
0.0
 20
0.0
 30
0.0
  0
VERTEX
  5
109E
  8
0
  6
HIDDEN
 62
     7
 10
-3.4886954643
 20
4.0046746373
 30
0.0
  0
VERTEX
  5
109F
  8
0
  6
HIDDEN
 62
     7
 10
-3.4886322646
 20
3.971620006
 30
0.0
  0
VERTEX
  5
10A0
  8
0
  6
HIDDEN
 62
     7
 10
-3.4877389304
 20
3.9422861341
 30
0.0
  0
VERTEX
  5
10A1
  8
0
  6
HIDDEN
 62
     7
 10
-3.4843300564
 20
3.9201799212
 30
0.0
  0
VERTEX
  5
10A2
  8
0
  6
HIDDEN
 62
     7
 10
-3.4770146931
 20
3.9077161497
 30
0.0
  0
VERTEX
  5
10A3
  8
0
  6
HIDDEN
 62
     7
 10
-3.4678242491
 20
3.9046746373
 30
0.0
  0
SEQEND
  5
10AA
  8
0
  6
HIDDEN
 62
     7
  0
POLYLINE
  5
32E
  8
0
  6
HIDDEN
 62
     7
 66
     1
 10
0.0
 20
0.0
 30
0.0
  0
VERTEX
  5
10A4
  8
0
  6
HIDDEN
 62
     7
 10
1.1697363444
 20
3.7644842609
 30
0.0
  0
VERTEX
  5
10A5
  8
0
  6
HIDDEN
 62
     7
 10
1.1781575744
 20
3.749117614
 30
0.0
  0
VERTEX
  5
10A6
  8
0
  6
HIDDEN
 62
     7
 10
1.1792841254
 20
3.7474675372
 30
0.0
  0
SEQEND
  5
10A9
  8
0
  6
HIDDEN
 62
     7
  0
LINE
  5
AC4
  8
0
  6
CONTINUOUS
 62
     7
 10
-2.0636954643
 20
0.7170485818
 30
0.0
 11
-2.7636954643
 21
0.7170485818
 31
0.0
  0
LINE
  5
AC5
  8
0
  6
CONTINUOUS
 62
     7
 10
-2.7636954643
 20
0.5776746373
 30
0.0
 11
-2.7636954643
 21
1.0046746373
 31
0.0
  0
LINE
  5
AC6
  8
0
  6
CONTINUOUS
 62
     7
 10
-2.0636954643
 20
0.9512166291
 30
0.0
 11
-2.7636954643
 21
0.9512166291
 31
0.0
  0
LINE
  5
AC7
  8
0
  6
CONTINUOUS
 62
     7
 10
-2.0636954643
 20
0.5776746373
 30
0.0
 11
-2.0636954643
 21
1.0046746373
 31
0.0
  0
LINE
  5
AC8
  8
0
  6
CONTINUOUS
 62
     7
 10
-2.7636954643
 20
0.6527046032
 30
0.0
 11
-2.0636954643
 21
0.6527046032
 31
0.0
  0
LINE
  5
AC9
  8
0
  6
CONTINUOUS
 62
     7
 10
1.9863045357
 20
0.6527046032
 30
0.0
 11
2.6863045357
 21
0.6527046032
 31
0.0
  0
LINE
  5
ACA
  8
0
  6
CONTINUOUS
 62
     7
 10
1.9863045357
 20
0.5776746373
 30
0.0
 11
1.9863045357
 21
1.0046746373
 31
0.0
  0
LINE
  5
ACB
  8
0
  6
CONTINUOUS
 62
     7
 10
2.6863045357
 20
0.7170485818
 30
0.0
 11
1.9863045357
 21
0.7170485818
 31
0.0
  0
LINE
  5
ACC
  8
0
  6
CONTINUOUS
 62
     7
 10
2.6863045357
 20
0.5776746373
 30
0.0
 11
2.6863045357
 21
1.0046746373
 31
0.0
  0
LINE
  5
ACD
  8
0
  6
CONTINUOUS
 62
     7
 10
2.6863045357
 20
0.9512166291
 30
0.0
 11
1.9863045357
 21
0.9512166291
 31
0.0
  0
LINE
  5
ACE
  8
0
  6
CONTINUOUS
 62
     7
 10
-2.0636954643
 20
0.5776746373
 30
0.0
 11
-2.7636954643
 21
0.5776746373
 31
0.0
  0
LINE
  5
ACF
  8
0
  6
CONTINUOUS
 62
     7
 10
2.6863045357
 20
0.5776746373
 30
0.0
 11
1.9863045357
 21
0.5776746373
 31
0.0
  0
LINE
  5
AD0
  8
0
  6
CONTINUOUS
 62
     7
 10
1.8363045357
 20
1.2546746373
 30
0.0
 11
1.8863045357
 21
1.2546746373
 31
0.0
  0
LINE
  5
AD1
  8
0
  6
CONTINUOUS
 62
     7
 10
1.7363045357
 20
1.1046746373
 30
0.0
 11
1.7363045357
 21
1.1546746373
 31
0.0
  0
LINE
  5
AD2
  8
0
  6
CONTINUOUS
 62
     7
 10
1.9863045357
 20
1.0046746373
 30
0.0
 11
1.8363045357
 21
1.0046746373
 31
0.0
  0
LINE
  5
AD3
  8
0
  6
CONTINUOUS
 62
     7
 10
2.8363045357
 20
1.0046746373
 30
0.0
 11
2.6863045357
 21
1.0046746373
 31
0.0
  0
LINE
  5
AD4
  8
0
  6
CONTINUOUS
 62
     7
 10
2.9363045357
 20
1.3046746373
 30
0.0
 11
2.9363045357
 21
1.1046746373
 31
0.0
  0
LINE
  5
AD5
  8
0
  6
CONTINUOUS
 62
     7
 10
-0.5236954643
 20
0.0046746373
 30
0.0
 11
-0.5236954643
 21
0.9285828052
 31
0.0
  0
LINE
  5
AD6
  8
0
  6
CONTINUOUS
 62
     7
 10
0.7463045357
 20
0.7946746373
 30
0.0
 11
-0.5236954643
 21
0.7946746373
 31
0.0
  0
LINE
  5
AD7
  8
0
  6
CONTINUOUS
 62
     7
 10
0.7463045357
 20
1.1446746373
 30
0.0
 11
0.7463045357
 21
0.7946746373
 31
0.0
  0
LINE
  5
AD8
  8
0
  6
CONTINUOUS
 62
     7
 10
0.4463045357
 20
1.1446746373
 30
0.0
 11
0.7463045357
 21
1.1446746373
 31
0.0
  0
LINE
  5
AD9
  8
0
  6
CONTINUOUS
 62
     7
 10
0.4463045357
 20
2.4999374317
 30
0.0
 11
0.4463045357
 21
1.0094118429
 31
0.0
  0
LINE
  5
ADA
  8
0
  6
CONTINUOUS
 62
     7
 10
-0.5536954643
 20
0.0046746373
 30
0.0
 11
-0.5536954643
 21
0.9285828052
 31
0.0
  0
LINE
  5
ADB
  8
0
  6
CONTINUOUS
 62
     7
 10
-3.0136954643
 20
1.1046746373
 30
0.0
 11
-3.0136954643
 21
1.3046746373
 31
0.0
  0
LINE
  5
ADC
  8
0
  6
CONTINUOUS
 62
     7
 10
-2.7636954643
 20
1.0046746373
 30
0.0
 11
-2.9136954643
 21
1.0046746373
 31
0.0
  0
LINE
  5
ADD
  8
0
  6
CONTINUOUS
 62
     7
 10
-1.9136954643
 20
1.0046746373
 30
0.0
 11
-2.0636954643
 21
1.0046746373
 31
0.0
  0
LINE
  5
ADE
  8
0
  6
CONTINUOUS
 62
     7
 10
-1.8136954643
 20
1.1546746373
 30
0.0
 11
-1.8136954643
 21
1.1046746373
 31
0.0
  0
LINE
  5
ADF
  8
0
  6
CONTINUOUS
 62
     7
 10
-1.9636954643
 20
1.2546746373
 30
0.0
 11
-1.9136954643
 21
1.2546746373
 31
0.0
  0
LINE
  5
AE0
  8
0
  6
CONTINUOUS
 62
     7
 10
0.4163045357
 20
1.0094118429
 30
0.0
 11
0.4163045357
 21
2.4999374317
 31
0.0
  0
LINE
  5
AE1
  8
0
  6
CONTINUOUS
 62
     7
 10
-0.8536954643
 20
1.1446746373
 30
0.0
 11
0.4163045357
 21
1.1446746373
 31
0.0
  0
LINE
  5
AE2
  8
0
  6
CONTINUOUS
 62
     7
 10
-0.8536954643
 20
0.7946746373
 30
0.0
 11
-0.8536954643
 21
1.1446746373
 31
0.0
  0
LINE
  5
AE3
  8
0
  6
CONTINUOUS
 62
     7
 10
-0.5536954643
 20
0.7946746373
 30
0.0
 11
-0.8536954643
 21
0.7946746373
 31
0.0
  0
LINE
  5
AE4
  8
0
  6
CONTINUOUS
 62
     7
 10
3.7113045357
 20
0.0046746373
 30
0.0
 11
-3.7886954643
 21
0.0046746373
 31
0.0
  0
LINE
  5
AE5
  8
0
  6
CONTINUOUS
 62
     7
 10
-0.2536954643
 20
1.101787886
 30
0.0
 11
0.1613045357
 21
0.8621875242
 31
0.0
  0
LINE
  5
AE6
  8
0
  6
CONTINUOUS
 62
     7
 10
0.1463045357
 20
0.8362067621
 30
0.0
 11
-0.2686954643
 21
1.0758071238
 31
0.0
  0
LINE
  5
AE7
  8
0
  6
CONTINUOUS
 62
     7
 10
-1.5636954643
 20
0.8046746373
 30
0.0
 11
1.4863045357
 21
0.8046746373
 31
0.0
  0
LINE
  5
AE8
  8
0
  6
CONTINUOUS
 62
     7
 10
-10.6486954643
 20
2.4046746373
 30
0.0
 11
-10.6486954643
 21
1.3046746373
 31
0.0
  0
LINE
  5
AE9
  8
0
  6
CONTINUOUS
 62
     7
 10
19.3413045357
 20
1.3046746373
 30
0.0
 11
-9.1486954643
 21
1.3046746373
 31
0.0
  0
LINE
  5
AEA
  8
0
  6
CONTINUOUS
 62
     7
 10
-19.3586954643
 20
1.3046746373
 30
0.0
 11
-19.3586954643
 21
18.3046746373
 31
0.0
  0
LINE
  5
AEB
  8
0
  6
CONTINUOUS
 62
     7
 10
9.1313045357
 20
18.3046746373
 30
0.0
 11
9.1313045357
 21
17.2046746373
 31
0.0
  0
LINE
  5
AEC
  8
0
  6
CONTINUOUS
 62
     7
 10
19.3413045357
 20
1.3046746373
 30
0.0
 11
19.3413045357
 21
18.3046746373
 31
0.0
  0
LINE
  5
AED
  8
0
  6
CONTINUOUS
 62
     7
 10
19.3413045357
 20
18.3046746373
 30
0.0
 11
10.6313045357
 21
18.3046746373
 31
0.0
  0
LINE
  5
AEE
  8
0
  6
CONTINUOUS
 62
     7
 10
-10.6486954643
 20
1.3046746373
 30
0.0
 11
-19.3586954643
 21
1.3046746373
 31
0.0
  0
LINE
  5
AEF
  8
0
  6
CONTINUOUS
 62
     7
 10
9.1313045357
 20
17.2046746373
 30
0.0
 11
10.6313045357
 21
17.2046746373
 31
0.0
  0
LINE
  5
AF0
  8
0
  6
CONTINUOUS
 62
     7
 10
10.6313045357
 20
17.2046746373
 30
0.0
 11
10.6313045357
 21
18.3046746373
 31
0.0
  0
LINE
  5
AF4
  8
0
  6
CONTINUOUS
 62
     7
 10
-8.0
 20
18.3046746373
 30
0.0
 11
-19.3586954643
 21
18.3046746373
 31
0.0
  0
LINE
  5
AF5
  8
0
  6
CONTINUOUS
 62
     7
 10
8.0
 20
18.3046746373
 30
0.0
 11
9.1313045357
 21
18.3046746373
 31
0.0
  0
LINE
  5
AF6
  8
0
  6
CONTINUOUS
 62
     7
 10
-9.1486954643
 20
1.3046746373
 30
0.0
 11
-9.1486954643
 21
2.4046746373
 31
0.0
  0
LINE
  5
AF7
  8
0
  6
CONTINUOUS
 62
     7
 10
-9.1486954643
 20
2.4046746373
 30
0.0
 11
-10.6486954643
 21
2.4046746373
 31
0.0
  0
LINE
  5
AF8
  8
0
  6
CONTINUOUS
 62
     8
 10
3.1613045357
 20
0.0046746373
 30
0.0
 11
3.1613045357
 21
1.4046746373
 31
0.0
  0
LINE
  5
AF9
  8
0
  6
CONTINUOUS
 62
     8
 10
-3.2386954643
 20
0.0046746373
 30
0.0
 11
-3.2386954643
 21
1.4046746373
 31
0.0
  0
LINE
  5
AFA
  8
0
  6
CONTINUOUS
 62
     8
 10
-2.8119187138
 20
0.1546746373
 30
0.0
 11
-2.8119187138
 21
4.7046746373
 31
0.0
  0
LINE
  5
AFB
  8
0
  6
CONTINUOUS
 62
     8
 10
2.7345277851
 20
4.7046746373
 30
0.0
 11
2.7345277851
 21
0.1546746373
 31
0.0
  0
LINE
  5
AFC
  8
0
  6
HIDDEN
 62
     7
 10
-3.4886954643
 20
1.7046746373
 30
0.0
 11
-4.1386954643
 21
1.7046746373
 31
0.0
  0
LINE
  5
AFD
  8
0
  6
HIDDEN
 62
     7
 10
-3.8386954643
 20
1.9046746373
 30
0.0
 11
-4.1386954643
 21
1.9046746373
 31
0.0
  0
LINE
  5
AFE
  8
0
  6
HIDDEN
 62
     7
 10
-3.4886954643
 20
2.6046746373
 30
0.0
 11
-4.1386954643
 21
2.6046746373
 31
0.0
  0
LINE
  5
AFF
  8
0
  6
HIDDEN
 62
     7
 10
-4.1386954643
 20
2.4046746373
 30
0.0
 11
-3.8386954643
 21
2.4046746373
 31
0.0
  0
LINE
  5
B00
  8
0
  6
HIDDEN
 62
     7
 10
-3.8386954643
 20
1.7046746373
 30
0.0
 11
-3.8386954643
 21
2.6046746373
 31
0.0
  0
LINE
  5
B01
  8
0
  6
HIDDEN
 62
     7
 10
-4.1386954643
 20
2.6046746373
 30
0.0
 11
-4.1386954643
 21
1.7046746373
 31
0.0
  0
LINE
  5
B02
  8
0
  6
HIDDEN
 62
     7
 10
4.0613045357
 20
1.7046746373
 30
0.0
 11
4.0613045357
 21
2.6046746373
 31
0.0
  0
LINE
  5
B03
  8
0
  6
HIDDEN
 62
     7
 10
4.0613045357
 20
1.9046746373
 30
0.0
 11
3.7613045357
 21
1.9046746373
 31
0.0
  0
LINE
  5
B04
  8
0
  6
HIDDEN
 62
     7
 10
3.7613045357
 20
2.6046746373
 30
0.0
 11
3.7613045357
 21
1.7046746373
 31
0.0
  0
LINE
  5
B05
  8
0
  6
HIDDEN
 62
     7
 10
3.7613045357
 20
2.4046746373
 30
0.0
 11
4.0613045357
 21
2.4046746373
 31
0.0
  0
LINE
  5
B06
  8
0
  6
HIDDEN
 62
     7
 10
4.0613045357
 20
2.6046746373
 30
0.0
 11
3.4113045357
 21
2.6046746373
 31
0.0
  0
LINE
  5
B07
  8
0
  6
HIDDEN
 62
     7
 10
4.0613045357
 20
1.7046746373
 30
0.0
 11
3.4113045357
 21
1.7046746373
 31
0.0
  0
LINE
  5
B08
  8
0
  6
HIDDEN
 62
     7
 10
1.1363045354
 20
5.1546746373
 30
0.0
 11
1.3863045354
 21
5.1546746373
 31
0.0
  0
LINE
  5
B09
  8
0
  6
HIDDEN
 62
     7
 10
1.3863045354
 20
5.1546746373
 30
0.0
 11
1.3863045354
 21
4.0546746373
 31
0.0
  0
LINE
  5
B0A
  8
0
  6
HIDDEN
 62
     7
 10
1.3863045354
 20
4.6211541857
 30
0.0
 11
1.1363045354
 21
4.6211541857
 31
0.0
  0
LINE
  5
B0B
  8
0
  6
HIDDEN
 62
     7
 10
1.1363045354
 20
4.0546746373
 30
0.0
 11
1.1363045354
 21
5.1546746373
 31
0.0
  0
LINE
  5
B0C
  8
0
  6
HIDDEN
 62
     7
 10
-1.2136954646
 20
5.1546746373
 30
0.0
 11
-1.2136954646
 21
4.0546746373
 31
0.0
  0
LINE
  5
B0D
  8
0
  6
HIDDEN
 62
     7
 10
-1.2136954646
 20
4.6211541857
 30
0.0
 11
-1.4636954646
 21
4.6211541857
 31
0.0
  0
LINE
  5
B0E
  8
0
  6
HIDDEN
 62
     7
 10
-1.4636954646
 20
5.1546746373
 30
0.0
 11
-1.4636954646
 21
4.0546746373
 31
0.0
  0
LINE
  5
B0F
  8
0
  6
HIDDEN
 62
     7
 10
-1.4636954646
 20
5.1546746373
 30
0.0
 11
-1.2136954646
 21
5.1546746373
 31
0.0
  0
LINE
  5
B10
  8
0
  6
HIDDEN
 62
     7
 10
-0.5636954646
 20
5.1546746373
 30
0.0
 11
-0.8136954646
 21
5.1546746373
 31
0.0
  0
LINE
  5
B11
  8
0
  6
HIDDEN
 62
     7
 10
-0.5636954646
 20
5.1546746373
 30
0.0
 11
-0.5636954646
 21
4.0546746373
 31
0.0
  0
LINE
  5
B12
  8
0
  6
HIDDEN
 62
     7
 10
-0.5636954646
 20
4.6211541857
 30
0.0
 11
-0.8136954646
 21
4.6211541857
 31
0.0
  0
LINE
  5
B13
  8
0
  6
HIDDEN
 62
     7
 10
-0.8136954646
 20
5.1546746373
 30
0.0
 11
-0.8136954643
 21
4.0546746373
 31
0.0
  0
LINE
  5
B14
  8
0
  6
HIDDEN
 62
     7
 10
0.7363045354
 20
5.1546746373
 30
0.0
 11
0.4863045354
 21
5.1546746373
 31
0.0
  0
LINE
  5
B15
  8
0
  6
HIDDEN
 62
     7
 10
0.7363045354
 20
5.1546746373
 30
0.0
 11
0.7363045354
 21
4.0546746373
 31
0.0
  0
LINE
  5
B16
  8
0
  6
HIDDEN
 62
     7
 10
0.7363045354
 20
4.6211541857
 30
0.0
 11
0.4863045354
 21
4.6211541857
 31
0.0
  0
LINE
  5
B17
  8
0
  6
HIDDEN
 62
     7
 10
0.4863045354
 20
5.1546746373
 30
0.0
 11
0.4863045354
 21
4.0546746373
 31
0.0
  0
LINE
  5
B18
  8
0
  6
HIDDEN
 62
     7
 10
0.0863045354
 20
5.1546746373
 30
0.0
 11
-0.1636954646
 21
5.1546746373
 31
0.0
  0
LINE
  5
B19
  8
0
  6
HIDDEN
 62
     7
 10
0.0863045354
 20
5.1546746373
 30
0.0
 11
0.0863045354
 21
4.0546746373
 31
0.0
  0
LINE
  5
B1A
  8
0
  6
HIDDEN
 62
     7
 10
0.0863045354
 20
4.6211541857
 30
0.0
 11
-0.1636954646
 21
4.6211541857
 31
0.0
  0
LINE
  5
B1B
  8
0
  6
HIDDEN
 62
     7
 10
-0.1636954646
 20
5.1546746373
 30
0.0
 11
-0.1636954646
 21
4.0546746373
 31
0.0
  0
LINE
  5
B1C
  8
0
  6
HIDDEN
 62
     7
 10
0.4863045354
 20
4.2443586901
 30
0.0
 11
0.7363045354
 21
4.2443586901
 31
0.0
  0
LINE
  5
B1D
  8
0
  6
HIDDEN
 62
     7
 10
-1.4636954646
 20
4.2443586901
 30
0.0
 11
-1.2136954646
 21
4.2443586901
 31
0.0
  0
LINE
  5
B1E
  8
0
  6
HIDDEN
 62
     7
 10
-0.8136954645
 20
4.2443586901
 30
0.0
 11
-0.5636954646
 21
4.2443586901
 31
0.0
  0
LINE
  5
B1F
  8
0
  6
HIDDEN
 62
     7
 10
-0.1636954646
 20
4.2443586901
 30
0.0
 11
0.0863045357
 21
4.2443586901
 31
0.0
  0
LINE
  5
B20
  8
0
  6
HIDDEN
 62
     7
 10
1.1363045354
 20
4.2443586901
 30
0.0
 11
1.3863045357
 21
4.2443586901
 31
0.0
  0
LINE
  5
B21
  8
0
  6
HIDDEN
 62
     7
 10
3.688081231
 20
2.6046746373
 30
0.0
 11
3.688081231
 21
1.7046746373
 31
0.0
  0
LINE
  5
B22
  8
0
  6
HIDDEN
 62
     7
 10
-3.977604194
 20
2.6046746373
 30
0.0
 11
-3.977604194
 21
1.7046746373
 31
0.0
  0
LINE
  5
B23
  8
0
  6
HIDDEN
 62
     7
 10
-3.7654721596
 20
2.6046746373
 30
0.0
 11
-3.7654721596
 21
1.7046746373
 31
0.0
  0
LINE
  5
B24
  8
0
  6
HIDDEN
 62
     7
 10
3.9002132653
 20
1.7046746373
 30
0.0
 11
3.9002132653
 21
2.6046746373
 31
0.0
  0
LINE
  5
B25
  8
0
  6
HIDDEN
 62
     7
 10
0.7463045357
 20
2.7146746373
 30
0.0
 11
0.7463045357
 21
2.3646746373
 31
0.0
  0
LINE
  5
B26
  8
0
  6
HIDDEN
 62
     7
 10
-0.5236954643
 20
2.7146746373
 30
0.0
 11
0.7463045357
 21
2.7146746373
 31
0.0
  0
LINE
  5
B27
  8
0
  6
HIDDEN
 62
     7
 10
-0.5236954643
 20
3.5046746373
 30
0.0
 11
-0.5236954643
 21
2.5807664694
 31
0.0
  0
LINE
  5
B28
  8
0
  6
HIDDEN
 62
     7
 10
1.7474044276
 20
3.7546746373
 30
0.0
 11
1.7474044276
 21
3.6046746373
 31
0.0
  0
LINE
  5
B29
  8
0
  6
HIDDEN
 62
     7
 10
1.8974044276
 20
3.9046746373
 30
0.0
 11
1.7474044276
 21
3.7546746373
 31
0.0
  0
LINE
  5
B2A
  8
0
  6
HIDDEN
 62
     7
 10
3.1613045357
 20
2.9046746373
 30
0.0
 11
3.1613045357
 21
3.9046746373
 31
0.0
  0
LINE
  5
B2B
  8
0
  6
HIDDEN
 62
     7
 10
3.0363045357
 20
2.9046746373
 30
0.0
 11
3.7113045357
 21
2.9046746373
 31
0.0
  0
LINE
  5
B2C
  8
0
  6
HIDDEN
 62
     7
 10
2.9363045357
 20
3.1046746373
 30
0.0
 11
2.9363045357
 21
3.0046746373
 31
0.0
  0
LINE
  5
B2D
  8
0
  6
HIDDEN
 62
     7
 10
2.0863045357
 20
3.2046746373
 30
0.0
 11
2.8363045357
 21
3.2046746373
 31
0.0
  0
LINE
  5
B2E
  8
0
  6
HIDDEN
 62
     7
 10
1.9863045357
 20
1.3546746373
 30
0.0
 11
1.9863045357
 21
3.1046746373
 31
0.0
  0
LINE
  5
B2F
  8
0
  6
HIDDEN
 62
     7
 10
3.7113045357
 20
1.4046746373
 30
0.0
 11
3.0363045357
 21
1.4046746373
 31
0.0
  0
LINE
  5
B30
  8
0
  6
HIDDEN
 62
     7
 10
0.7463045357
 20
2.3646746373
 30
0.0
 11
0.4463045357
 21
2.3646746373
 31
0.0
  0
LINE
  5
B31
  8
0
  6
HIDDEN
 62
     7
 10
-3.1136954643
 20
1.4046746373
 30
0.0
 11
-3.7886954643
 21
1.4046746373
 31
0.0
  0
LINE
  5
B32
  8
0
  6
HIDDEN
 62
     7
 10
-2.0636954643
 20
3.1046746373
 30
0.0
 11
-2.0636954643
 21
1.3546746373
 31
0.0
  0
LINE
  5
B33
  8
0
  6
HIDDEN
 62
     7
 10
-2.9136954643
 20
3.2046746373
 30
0.0
 11
-2.1636954643
 21
3.2046746373
 31
0.0
  0
LINE
  5
B34
  8
0
  6
HIDDEN
 62
     7
 10
-3.0136954643
 20
3.0046746373
 30
0.0
 11
-3.0136954643
 21
3.1046746373
 31
0.0
  0
LINE
  5
B35
  8
0
  6
HIDDEN
 62
     7
 10
-3.1136954643
 20
2.9046746373
 30
0.0
 11
-3.7886954643
 21
2.9046746373
 31
0.0
  0
LINE
  5
B36
  8
0
  6
HIDDEN
 62
     7
 10
-3.2386954643
 20
3.9046746373
 30
0.0
 11
-3.2386954643
 21
2.9046746373
 31
0.0
  0
LINE
  5
B37
  8
0
  6
HIDDEN
 62
     7
 10
-1.8247953563
 20
3.7546746373
 30
0.0
 11
-1.9747953563
 21
3.9046746373
 31
0.0
  0
LINE
  5
B38
  8
0
  6
HIDDEN
 62
     7
 10
-1.8247953563
 20
3.6046746373
 30
0.0
 11
-1.8247953563
 21
3.7546746373
 31
0.0
  0
LINE
  5
B39
  8
0
  6
HIDDEN
 62
     7
 10
3.2413045357
 20
3.5046746373
 30
0.0
 11
-3.3186954643
 21
3.5046746373
 31
0.0
  0
LINE
  5
B3A
  8
0
  6
HIDDEN
 62
     7
 10
-0.5536954643
 20
2.5807664694
 30
0.0
 11
-0.5536954643
 21
3.5046746373
 31
0.0
  0
LINE
  5
B3B
  8
0
  6
HIDDEN
 62
     7
 10
-0.8536954643
 20
2.7146746373
 30
0.0
 11
-0.5536954643
 21
2.7146746373
 31
0.0
  0
LINE
  5
B3C
  8
0
  6
HIDDEN
 62
     7
 10
-0.8536954643
 20
2.3646746373
 30
0.0
 11
-0.8536954643
 21
2.7146746373
 31
0.0
  0
LINE
  5
B3D
  8
0
  6
HIDDEN
 62
     7
 10
0.4163045357
 20
2.3646746373
 30
0.0
 11
-0.8536954643
 21
2.3646746373
 31
0.0
  0
LINE
  5
B3E
  8
0
  6
HIDDEN
 62
     7
 10
1.8863045357
 20
4.6046746373
 30
0.0
 11
2.9613045357
 21
4.6046746373
 31
0.0
  0
LINE
  5
B3F
  8
0
  6
HIDDEN
 62
     7
 10
1.8863045357
 20
5.0046746373
 30
0.0
 11
1.8863045357
 21
4.3046746373
 31
0.0
  0
LINE
  5
B40
  8
0
  6
HIDDEN
 62
     7
 10
2.9613045357
 20
4.3046746373
 30
0.0
 11
2.9613045357
 21
5.0046746373
 31
0.0
  0
LINE
  5
B41
  8
0
  6
HIDDEN
 62
     7
 10
-1.9636954643
 20
4.6046746373
 30
0.0
 11
-3.0386954643
 21
4.6046746373
 31
0.0
  0
LINE
  5
B42
  8
0
  6
HIDDEN
 62
     7
 10
-3.0386954643
 20
5.0046746373
 30
0.0
 11
-3.0386954643
 21
4.3046746373
 31
0.0
  0
LINE
  5
B43
  8
0
  6
HIDDEN
 62
     7
 10
-1.9636954643
 20
4.3046746373
 30
0.0
 11
-1.9636954643
 21
5.0046746373
 31
0.0
  0
LINE
  5
B44
  8
0
  6
HIDDEN
 62
     7
 10
-2.1636954643
 20
4.1046746373
 30
0.0
 11
-2.8386954643
 21
4.1046746373
 31
0.0
  0
LINE
  5
B45
  8
0
  6
HIDDEN
 62
     7
 10
2.0863045357
 20
4.1046746373
 30
0.0
 11
2.7613045357
 21
4.1046746373
 31
0.0
  0
LINE
  5
B46
  8
0
  6
HIDDEN
 62
     7
 10
-3.0386954643
 20
5.0046746373
 30
0.0
 11
2.9613045357
 21
5.0046746373
 31
0.0
  0
LINE
  5
B47
  8
0
  6
HIDDEN
 62
     7
 10
-0.2686954643
 20
2.4335421508
 30
0.0
 11
0.1463045357
 21
2.6731425125
 31
0.0
  0
LINE
  5
B48
  8
0
  6
HIDDEN
 62
     7
 10
0.1613045357
 20
2.6471617504
 30
0.0
 11
-0.2536954643
 21
2.4075613886
 31
0.0
  0
LINE
  5
B49
  8
0
  6
HIDDEN
 62
     7
 10
-3.7795281557
 20
3.9046746373
 30
0.0
 11
3.702137227
 21
3.9046746373
 31
0.0
  0
LINE
  5
B4A
  8
0
  6
HIDDEN
 62
     7
 10
-2.7636954643
 20
0.8586762941
 30
0.0
 11
-2.0636954643
 21
0.8586762941
 31
0.0
  0
LINE
  5
B4B
  8
0
  6
HIDDEN
 62
     7
 10
1.9863045357
 20
0.8586762941
 30
0.0
 11
2.6863045357
 21
0.8586762941
 31
0.0
  0
LINE
  5
B4C
  8
0
  6
HIDDEN
 62
     7
 10
0.0863045354
 20
4.0546746373
 30
0.0
 11
0.4863045354
 21
4.0546746373
 31
0.0
  0
LINE
  5
B4D
  8
0
  6
HIDDEN
 62
     7
 10
0.7363045354
 20
4.0546746373
 30
0.0
 11
1.1363045354
 21
4.0546746373
 31
0.0
  0
LINE
  5
B4E
  8
0
  6
HIDDEN
 62
     7
 10
-3.1686954643
 20
4.6246746373
 30
0.0
 11
3.0913045357
 21
4.6246746373
 31
0.0
  0
LINE
  5
B4F
  8
0
  6
HIDDEN
 62
     7
 10
-1.2136954646
 20
4.0546746373
 30
0.0
 11
-0.8136954643
 21
4.0546746373
 31
0.0
  0
LINE
  5
B50
  8
0
  6
HIDDEN
 62
     7
 10
-0.5636954646
 20
4.0546746373
 30
0.0
 11
-0.1636954646
 21
4.0546746373
 31
0.0
  0
LINE
  5
B51
  8
0
  6
HIDDEN
 62
     7
 10
-1.7686954643
 20
4.7046746373
 30
0.0
 11
-1.7686954643
 21
3.6546746373
 31
0.0
  0
LINE
  5
B52
  8
0
  6
HIDDEN
 62
     7
 10
-1.4636954646
 20
4.0546746373
 30
0.0
 11
-1.9636954643
 21
4.0546746373
 31
0.0
  0
LINE
  5
B53
  8
0
  6
HIDDEN
 62
     7
 10
1.8863045357
 20
4.0546746373
 30
0.0
 11
1.3863045354
 21
4.0546746373
 31
0.0
  0
LINE
  5
B54
  8
0
  6
HIDDEN
 62
     7
 10
1.6913045357
 20
4.7046746373
 30
0.0
 11
1.6913045357
 21
3.6546746373
 31
0.0
  0
LINE
  5
B55
  8
0
  6
HIDDEN
 62
     7
 10
3.4113045357
 20
0.1546746373
 30
0.0
 11
3.5613045356
 21
0.0046746373
 31
0.0
  0
LINE
  5
B56
  8
0
  6
HIDDEN
 62
     7
 10
3.4113045357
 20
0.1546746373
 30
0.0
 11
-3.4886954643
 21
0.1546746373
 31
0.0
  0
LINE
  5
B57
  8
0
  6
HIDDEN
 62
     7
 10
-3.4886954643
 20
0.1546746374
 30
0.0
 11
-3.6386954643
 21
0.0046746373
 31
0.0
  0
LINE
  5
B58
  8
0
  6
HIDDEN
 62
     7
 10
-3.6497867347
 20
2.6046746373
 30
0.0
 11
-3.6497867347
 21
1.7046746373
 31
0.0
  0
LINE
  5
B59
  8
0
  6
HIDDEN
 62
     7
 10
3.572395806
 20
1.7046746373
 30
0.0
 11
3.572395806
 21
2.6046746373
 31
0.0
  0
LINE
  5
B5A
  8
0
  6
HIDDEN
 62
     7
 10
-1.9636954643
 20
4.8046746373
 30
0.0
 11
-3.0386954643
 21
4.8046746373
 31
0.0
  0
LINE
  5
B5B
  8
0
  6
HIDDEN
 62
     7
 10
2.9613045357
 20
4.8046746373
 30
0.0
 11
1.8863045357
 21
4.8046746373
 31
0.0
  0
LINE
  5
B5C
  8
0
  6
HIDDEN
 62
     7
 10
-0.5636954645
 20
4.2268074092
 30
0.0
 11
-0.8136954645
 21
4.2268074092
 31
0.0
  0
LINE
  5
B5D
  8
0
  6
HIDDEN
 62
     7
 10
0.0863045357
 20
4.2268074092
 30
0.0
 11
-0.1636954646
 21
4.2268074092
 31
0.0
  0
LINE
  5
B5E
  8
0
  6
HIDDEN
 62
     7
 10
0.7363045355
 20
4.2268074092
 30
0.0
 11
0.4863045354
 21
4.2268074092
 31
0.0
  0
LINE
  5
B5F
  8
0
  6
HIDDEN
 62
     7
 10
-1.2136954645
 20
4.2268074092
 30
0.0
 11
-1.4636954646
 21
4.2268074092
 31
0.0
  0
LINE
  5
B60
  8
0
  6
HIDDEN
 62
     7
 10
1.3863045357
 20
4.2268074092
 30
0.0
 11
1.1363045354
 21
4.2268074092
 31
0.0
  0
LINE
  5
B61
  8
0
  6
HIDDEN
 62
     7
 10
3.0913045357
 20
3.9046746373
 30
0.0
 11
3.0913045357
 21
3.5046746373
 31
0.0
  0
LINE
  5
B62
  8
0
  6
HIDDEN
 62
     7
 10
3.3913045357
 20
3.6546746373
 30
0.0
 11
1.2313045357
 21
3.6546746373
 31
0.0
  0
LINE
  5
B63
  8
0
  6
HIDDEN
 62
     7
 10
3.2413045357
 20
3.5046746373
 30
0.0
 11
3.3913045356
 21
3.6546746373
 31
0.0
  0
LINE
  5
B64
  8
0
  6
HIDDEN
 62
     7
 10
3.0913045357
 20
4.6546746373
 30
0.0
 11
3.0913045357
 21
4.6246746373
 31
0.0
  0
LINE
  5
B65
  8
0
  6
HIDDEN
 62
     7
 10
3.3913045357
 20
3.6546746373
 30
0.0
 11
3.3913045357
 21
4.7046746373
 31
0.0
  0
LINE
  5
B66
  8
0
  6
HIDDEN
 62
     7
 10
-3.4686954643
 20
4.7046746373
 30
0.0
 11
-3.4686954643
 21
3.6546746373
 31
0.0
  0
LINE
  5
B67
  8
0
  6
HIDDEN
 62
     7
 10
-3.1686954643
 20
4.6246746373
 30
0.0
 11
-3.1686954643
 21
4.6546746373
 31
0.0
  0
LINE
  5
B68
  8
0
  6
HIDDEN
 62
     7
 10
-3.1686954643
 20
3.5046746373
 30
0.0
 11
-3.1686954643
 21
3.9046746373
 31
0.0
  0
LINE
  5
B69
  8
0
  6
HIDDEN
 62
     7
 10
-1.3086954643
 20
3.6546746373
 30
0.0
 11
-3.4686954643
 21
3.6546746373
 31
0.0
  0
LINE
  5
B6A
  8
0
  6
HIDDEN
 62
     7
 10
-3.4686954643
 20
3.6546746373
 30
0.0
 11
-3.3186954643
 21
3.5046746373
 31
0.0
  0
LINE
  5
B6B
  8
0
  6
HIDDEN
 62
     7
 10
1.9913045357
 20
4.4546746373
 30
0.0
 11
1.9913045357
 21
4.0546746373
 31
0.0
  0
LINE
  5
B6C
  8
0
  6
HIDDEN
 62
     7
 10
1.9913045357
 20
4.0546746373
 30
0.0
 11
2.7913045357
 21
4.0546746373
 31
0.0
  0
LINE
  5
B6D
  8
0
  6
HIDDEN
 62
     7
 10
2.7913045357
 20
4.0546746373
 30
0.0
 11
2.7913045357
 21
4.4546746373
 31
0.0
  0
LINE
  5
B6E
  8
0
  6
HIDDEN
 62
     7
 10
2.7913045357
 20
4.4546746373
 30
0.0
 11
1.9913045357
 21
4.4546746373
 31
0.0
  0
LINE
  5
B6F
  8
0
  6
HIDDEN
 62
     7
 10
1.6913045357
 20
4.6546746373
 30
0.0
 11
3.0913045357
 21
4.6546746373
 31
0.0
  0
LINE
  5
B70
  8
0
  6
HIDDEN
 62
     7
 10
-2.0686954643
 20
4.0546746373
 30
0.0
 11
-2.0686954643
 21
4.4546746373
 31
0.0
  0
LINE
  5
B71
  8
0
  6
HIDDEN
 62
     7
 10
-2.0686954643
 20
4.4546746373
 30
0.0
 11
-2.8686954643
 21
4.4546746373
 31
0.0
  0
LINE
  5
B72
  8
0
  6
HIDDEN
 62
     7
 10
-2.8686954643
 20
4.4546746373
 30
0.0
 11
-2.8686954643
 21
4.0546746373
 31
0.0
  0
LINE
  5
B73
  8
0
  6
HIDDEN
 62
     7
 10
-2.8686954643
 20
4.0546746373
 30
0.0
 11
-2.0686954643
 21
4.0546746373
 31
0.0
  0
LINE
  5
B74
  8
0
  6
HIDDEN
 62
     7
 10
-3.1686954643
 20
4.6546746373
 30
0.0
 11
-1.7686954643
 21
4.6546746373
 31
0.0
  0
LINE
  5
B75
  8
0
  6
HIDDEN
 62
     7
 10
3.4113045357
 20
4.7046746373
 30
0.0
 11
3.4113045357
 21
0.1546746373
 31
0.0
  0
LINE
  5
B76
  8
0
  6
HIDDEN
 62
     7
 10
3.4113045357
 20
4.0046746373
 30
0.0
 11
3.7113045357
 21
4.0046746373
 31
0.0
  0
LINE
  5
B77
  8
0
  6
HIDDEN
 62
     7
 10
-3.7886954643
 20
4.0046746373
 30
0.0
 11
-3.4886954643
 21
4.0046746373
 31
0.0
  0
LINE
  5
B78
  8
0
  6
HIDDEN
 62
     7
 10
-1.8636954643
 20
4.7046746373
 30
0.0
 11
-1.8636954643
 21
5.0046746373
 31
0.0
  0
LINE
  5
B79
  8
0
  6
HIDDEN
 62
     7
 10
1.7863045357
 20
4.7046746373
 30
0.0
 11
1.7863045357
 21
5.0046746373
 31
0.0
  0
LINE
  5
B7A
  8
0
  6
HIDDEN
 62
     7
 10
3.7113045357
 20
0.0046746373
 30
0.0
 11
3.7113045357
 21
4.7046746373
 31
0.0
  0
LINE
  5
B7B
  8
0
  6
HIDDEN
 62
     7
 10
3.7845278404
 20
1.7046746373
 30
0.0
 11
3.7845278404
 21
2.6046746373
 31
0.0
  0
LINE
  5
B7C
  8
0
  6
HIDDEN
 62
     7
 10
-3.861918769
 20
2.6046746373
 30
0.0
 11
-3.861918769
 21
1.7046746373
 31
0.0
  0
LINE
  5
B7D
  8
0
  6
HIDDEN
 62
     7
 10
-1.0386954643
 20
4.7046746373
 30
0.0
 11
-1.0386954643
 21
5.0046746373
 31
0.0
  0
LINE
  5
B7E
  8
0
  6
HIDDEN
 62
     7
 10
0.9613045357
 20
4.7046746373
 30
0.0
 11
0.9613045357
 21
5.0046746373
 31
0.0
  0
LINE
  5
B7F
  8
0
  6
HIDDEN
 62
     7
 10
3.4113045357
 20
4.5046746373
 30
0.0
 11
3.7113045357
 21
4.5046746373
 31
0.0
  0
LINE
  5
B80
  8
0
  6
HIDDEN
 62
     7
 10
-3.7886954643
 20
4.5046746373
 30
0.0
 11
-3.4886954643
 21
4.5046746373
 31
0.0
  0
LINE
  5
B81
  8
0
  6
HIDDEN
 62
     7
 10
3.7113045357
 20
4.7046746373
 30
0.0
 11
-3.7886954643
 21
4.7046746373
 31
0.0
  0
LINE
  5
B82
  8
0
  6
HIDDEN
 62
     7
 10
-3.7886954643
 20
4.7046746373
 30
0.0
 11
-3.7886954643
 21
0.0046746373
 31
0.0
  0
LINE
  5
B83
  8
0
  6
HIDDEN
 62
     7
 10
-3.4886954643
 20
0.1546746373
 30
0.0
 11
-3.4886954643
 21
4.7046746373
 31
0.0
  0
LINE
  5
B84
  8
0
  6
HIDDEN
 62
     7
 10
-0.7952682715
 20
4.9246746373
 30
0.0
 11
0.7178773428
 21
4.9246746373
 31
0.0
  0
LINE
  5
B85
  8
0
  6
HIDDEN
 62
     7
 10
0.7113045357
 20
4.9246746373
 30
0.0
 11
0.7113045357
 21
4.7846746373
 31
0.0
  0
LINE
  5
B86
  8
0
  6
HIDDEN
 62
     7
 10
-0.7886954643
 20
4.7846746373
 30
0.0
 11
-0.7886954643
 21
4.9246746373
 31
0.0
  0
LINE
  5
B87
  8
0
  6
HIDDEN
 62
     7
 10
0.7178773428
 20
4.7846746373
 30
0.0
 11
-0.7952682715
 21
4.7846746373
 31
0.0
  0
LINE
  5
B88
  8
0
  6
HIDDEN
 62
     7
 10
-1.7636954643
 20
3.5046746373
 30
0.0
 11
-1.7636954643
 21
1.0046746373
 31
0.0
  0
LINE
  5
B89
  8
0
  6
HIDDEN
 62
     7
 10
-1.5636954643
 20
3.5046746373
 30
0.0
 11
-1.5636954643
 21
0.8046746373
 31
0.0
  0
LINE
  5
B8A
  8
0
  6
HIDDEN
 62
     7
 10
1.4863045357
 20
0.8046746373
 30
0.0
 11
1.4863045357
 21
3.5046746373
 31
0.0
  0
LINE
  5
B8B
  8
0
  6
HIDDEN
 62
     7
 10
0.1863045357
 20
2.2546746373
 30
0.0
 11
0.3863045357
 21
2.2546746373
 31
0.0
  0
LINE
  5
B8C
  8
0
  6
HIDDEN
 62
     7
 10
0.1863045357
 20
1.9546746373
 30
0.0
 11
0.1863045357
 21
2.2546746373
 31
0.0
  0
LINE
  5
B8D
  8
0
  6
HIDDEN
 62
     7
 10
0.3863045357
 20
1.9546746373
 30
0.0
 11
0.1863045357
 21
1.9546746373
 31
0.0
  0
LINE
  5
B8E
  8
0
  6
HIDDEN
 62
     7
 10
0.3863045357
 20
2.2546746373
 30
0.0
 11
0.3863045357
 21
1.9546746373
 31
0.0
  0
LINE
  5
B8F
  8
0
  6
HIDDEN
 62
     7
 10
-1.2386954643
 20
1.4546746373
 30
0.0
 11
-1.4386954643
 21
1.4546746373
 31
0.0
  0
LINE
  5
B90
  8
0
  6
HIDDEN
 62
     7
 10
-1.2386954643
 20
1.7546746373
 30
0.0
 11
-1.2386954643
 21
1.4546746373
 31
0.0
  0
LINE
  5
B91
  8
0
  6
HIDDEN
 62
     7
 10
-1.4386954643
 20
1.7546746373
 30
0.0
 11
-1.2386954643
 21
1.7546746373
 31
0.0
  0
LINE
  5
B92
  8
0
  6
HIDDEN
 62
     7
 10
-1.4386954643
 20
1.4546746373
 30
0.0
 11
-1.4386954643
 21
1.7546746373
 31
0.0
  0
LINE
  5
B93
  8
0
  6
HIDDEN
 62
     7
 10
0.0613045357
 20
1.4546746373
 30
0.0
 11
-0.1386954643
 21
1.4546746373
 31
0.0
  0
LINE
  5
B94
  8
0
  6
HIDDEN
 62
     7
 10
0.0613045357
 20
1.7546746373
 30
0.0
 11
0.0613045357
 21
1.4546746373
 31
0.0
  0
LINE
  5
B95
  8
0
  6
HIDDEN
 62
     7
 10
-0.1386954643
 20
1.7546746373
 30
0.0
 11
0.0613045357
 21
1.7546746373
 31
0.0
  0
LINE
  5
B96
  8
0
  6
HIDDEN
 62
     7
 10
-0.1386954643
 20
1.4546746373
 30
0.0
 11
-0.1386954643
 21
1.7546746373
 31
0.0
  0
LINE
  5
B97
  8
0
  6
HIDDEN
 62
     7
 10
0.5113045357
 20
1.4546746373
 30
0.0
 11
0.5113045357
 21
1.7546746373
 31
0.0
  0
LINE
  5
B98
  8
0
  6
HIDDEN
 62
     7
 10
0.7113045357
 20
1.4546746373
 30
0.0
 11
0.5113045357
 21
1.4546746373
 31
0.0
  0
LINE
  5
B99
  8
0
  6
HIDDEN
 62
     7
 10
0.7113045357
 20
1.7546746373
 30
0.0
 11
0.7113045357
 21
1.4546746373
 31
0.0
  0
LINE
  5
B9A
  8
0
  6
HIDDEN
 62
     7
 10
0.5113045357
 20
1.7546746373
 30
0.0
 11
0.7113045357
 21
1.7546746373
 31
0.0
  0
LINE
  5
B9B
  8
0
  6
HIDDEN
 62
     7
 10
1.3613045357
 20
1.7546746373
 30
0.0
 11
1.3613045357
 21
1.4546746373
 31
0.0
  0
LINE
  5
B9C
  8
0
  6
HIDDEN
 62
     7
 10
1.1613045357
 20
1.7546746373
 30
0.0
 11
1.3613045357
 21
1.7546746373
 31
0.0
  0
LINE
  5
B9D
  8
0
  6
HIDDEN
 62
     7
 10
1.1613045357
 20
1.4546746373
 30
0.0
 11
1.1613045357
 21
1.7546746373
 31
0.0
  0
LINE
  5
B9E
  8
0
  6
HIDDEN
 62
     7
 10
1.3613045357
 20
1.4546746373
 30
0.0
 11
1.1613045357
 21
1.4546746373
 31
0.0
  0
LINE
  5
B9F
  8
0
  6
HIDDEN
 62
     7
 10
-0.7886954643
 20
1.4546746373
 30
0.0
 11
-0.7886954643
 21
1.7546746373
 31
0.0
  0
LINE
  5
BA0
  8
0
  6
HIDDEN
 62
     7
 10
-0.5886954643
 20
1.4546746373
 30
0.0
 11
-0.7886954643
 21
1.4546746373
 31
0.0
  0
LINE
  5
BA1
  8
0
  6
HIDDEN
 62
     7
 10
-0.5886954643
 20
1.7546746373
 30
0.0
 11
-0.5886954643
 21
1.4546746373
 31
0.0
  0
LINE
  5
BA2
  8
0
  6
HIDDEN
 62
     7
 10
-0.7886954643
 20
1.7546746373
 30
0.0
 11
-0.5886954643
 21
1.7546746373
 31
0.0
  0
LINE
  5
BA3
  8
0
  6
HIDDEN
 62
     7
 10
0.7113045357
 20
3.3546746373
 30
0.0
 11
0.7113045357
 21
3.0546746373
 31
0.0
  0
LINE
  5
BA4
  8
0
  6
HIDDEN
 62
     7
 10
0.5113045357
 20
3.3546746373
 30
0.0
 11
0.7113045357
 21
3.3546746373
 31
0.0
  0
LINE
  5
BA5
  8
0
  6
HIDDEN
 62
     7
 10
0.5113045357
 20
3.0546746373
 30
0.0
 11
0.5113045357
 21
3.3546746373
 31
0.0
  0
LINE
  5
BA6
  8
0
  6
HIDDEN
 62
     7
 10
0.7113045357
 20
3.0546746373
 30
0.0
 11
0.5113045357
 21
3.0546746373
 31
0.0
  0
LINE
  5
BA7
  8
0
  6
HIDDEN
 62
     7
 10
-1.4386954643
 20
3.0546746373
 30
0.0
 11
-1.4386954643
 21
3.3546746373
 31
0.0
  0
LINE
  5
BA8
  8
0
  6
HIDDEN
 62
     7
 10
-1.2386954643
 20
3.0546746373
 30
0.0
 11
-1.4386954643
 21
3.0546746373
 31
0.0
  0
LINE
  5
BA9
  8
0
  6
HIDDEN
 62
     7
 10
-1.2386954643
 20
3.3546746373
 30
0.0
 11
-1.2386954643
 21
3.0546746373
 31
0.0
  0
LINE
  5
BAA
  8
0
  6
HIDDEN
 62
     7
 10
-1.4386954643
 20
3.3546746373
 30
0.0
 11
-1.2386954643
 21
3.3546746373
 31
0.0
  0
LINE
  5
BAB
  8
0
  6
HIDDEN
 62
     7
 10
1.3613045357
 20
3.3546746373
 30
0.0
 11
1.3613045357
 21
3.0546746373
 31
0.0
  0
LINE
  5
BAC
  8
0
  6
HIDDEN
 62
     7
 10
1.1613045357
 20
3.3546746373
 30
0.0
 11
1.3613045357
 21
3.3546746373
 31
0.0
  0
LINE
  5
BAD
  8
0
  6
HIDDEN
 62
     7
 10
1.1613045357
 20
3.0546746373
 30
0.0
 11
1.1613045357
 21
3.3546746373
 31
0.0
  0
LINE
  5
BAE
  8
0
  6
HIDDEN
 62
     7
 10
1.3613045357
 20
3.0546746373
 30
0.0
 11
1.1613045357
 21
3.0546746373
 31
0.0
  0
LINE
  5
BAF
  8
0
  6
HIDDEN
 62
     7
 10
-0.5886954643
 20
3.3546746373
 30
0.0
 11
-0.5886954643
 21
3.0546746373
 31
0.0
  0
LINE
  5
BB0
  8
0
  6
HIDDEN
 62
     7
 10
-0.7886954643
 20
3.3546746373
 30
0.0
 11
-0.5886954643
 21
3.3546746373
 31
0.0
  0
LINE
  5
BB1
  8
0
  6
HIDDEN
 62
     7
 10
-0.7886954643
 20
3.0546746373
 30
0.0
 11
-0.7886954643
 21
3.3546746373
 31
0.0
  0
LINE
  5
BB2
  8
0
  6
HIDDEN
 62
     7
 10
-0.5886954643
 20
3.0546746373
 30
0.0
 11
-0.7886954643
 21
3.0546746373
 31
0.0
  0
LINE
  5
BB3
  8
0
  6
HIDDEN
 62
     7
 10
0.0613045357
 20
3.3546746373
 30
0.0
 11
0.0613045357
 21
3.0546746373
 31
0.0
  0
LINE
  5
BB4
  8
0
  6
HIDDEN
 62
     7
 10
-0.1386954643
 20
3.3546746373
 30
0.0
 11
0.0613045357
 21
3.3546746373
 31
0.0
  0
LINE
  5
BB5
  8
0
  6
HIDDEN
 62
     7
 10
-0.1386954643
 20
3.0546746373
 30
0.0
 11
-0.1386954643
 21
3.3546746373
 31
0.0
  0
LINE
  5
BB6
  8
0
  6
HIDDEN
 62
     7
 10
0.0613045357
 20
3.0546746373
 30
0.0
 11
-0.1386954643
 21
3.0546746373
 31
0.0
  0
LINE
  5
BB7
  8
0
  6
HIDDEN
 62
     7
 10
1.0363045357
 20
1.9546746373
 30
0.0
 11
0.8363045357
 21
1.9546746373
 31
0.0
  0
LINE
  5
BB8
  8
0
  6
HIDDEN
 62
     7
 10
1.0363045357
 20
2.2546746373
 30
0.0
 11
1.0363045357
 21
1.9546746373
 31
0.0
  0
LINE
  5
BB9
  8
0
  6
HIDDEN
 62
     7
 10
0.8363045357
 20
2.2546746373
 30
0.0
 11
1.0363045357
 21
2.2546746373
 31
0.0
  0
LINE
  5
BBA
  8
0
  6
HIDDEN
 62
     7
 10
0.8363045357
 20
1.9546746373
 30
0.0
 11
0.8363045357
 21
2.2546746373
 31
0.0
  0
LINE
  5
BBB
  8
0
  6
HIDDEN
 62
     7
 10
-0.4636954643
 20
2.2546746373
 30
0.0
 11
-0.2636954643
 21
2.2546746373
 31
0.0
  0
LINE
  5
BBC
  8
0
  6
HIDDEN
 62
     7
 10
-0.4636954643
 20
1.9546746373
 30
0.0
 11
-0.4636954643
 21
2.2546746373
 31
0.0
  0
LINE
  5
BBD
  8
0
  6
HIDDEN
 62
     7
 10
-0.2636954643
 20
1.9546746373
 30
0.0
 11
-0.4636954643
 21
1.9546746373
 31
0.0
  0
LINE
  5
BBE
  8
0
  6
HIDDEN
 62
     7
 10
-0.2636954643
 20
2.2546746373
 30
0.0
 11
-0.2636954643
 21
1.9546746373
 31
0.0
  0
LINE
  5
BBF
  8
0
  6
HIDDEN
 62
     7
 10
-0.9136954643
 20
1.9546746373
 30
0.0
 11
-1.1136954643
 21
1.9546746373
 31
0.0
  0
LINE
  5
BC0
  8
0
  6
HIDDEN
 62
     7
 10
-0.9136954643
 20
2.2546746373
 30
0.0
 11
-0.9136954643
 21
1.9546746373
 31
0.0
  0
LINE
  5
BC1
  8
0
  6
HIDDEN
 62
     7
 10
-1.1136954643
 20
2.2546746373
 30
0.0
 11
-0.9136954643
 21
2.2546746373
 31
0.0
  0
LINE
  5
BC2
  8
0
  6
HIDDEN
 62
     7
 10
-1.1136954643
 20
1.9546746373
 30
0.0
 11
-1.1136954643
 21
2.2546746373
 31
0.0
  0
LINE
  5
BC3
  8
0
  6
HIDDEN
 62
     7
 10
1.6863045357
 20
1.0046746373
 30
0.0
 11
1.6863045357
 21
3.5046746373
 31
0.0
  0
LINE
  5
BC4
  8
0
  6
HIDDEN
 62
     7
 10
1.4488045357
 20
0.8046746373
 30
0.0
 11
1.4488045357
 21
3.5046746373
 31
0.0
  0
LINE
  5
BC5
  8
0
  6
HIDDEN
 62
     7
 10
0.7988045357
 20
0.8046746373
 30
0.0
 11
0.7988045357
 21
3.5046746373
 31
0.0
  0
LINE
  5
BC6
  8
0
  6
HIDDEN
 62
     7
 10
1.0738045357
 20
3.5046746373
 30
0.0
 11
1.0738045357
 21
0.8046746373
 31
0.0
  0
LINE
  5
BC7
  8
0
  6
HIDDEN
 62
     7
 10
0.1488045357
 20
0.8046746373
 30
0.0
 11
0.1488045357
 21
3.5046746373
 31
0.0
  0
LINE
  5
BC8
  8
0
  6
HIDDEN
 62
     7
 10
-0.5011954643
 20
0.8046746373
 30
0.0
 11
-0.5011954643
 21
3.5046746373
 31
0.0
  0
LINE
  5
BC9
  8
0
  6
HIDDEN
 62
     7
 10
0.4213045357
 20
3.5046746373
 30
0.0
 11
0.4213045357
 21
0.8046746373
 31
0.0
  0
LINE
  5
BCA
  8
0
  6
HIDDEN
 62
     7
 10
-1.1486954643
 20
0.8046746373
 30
0.0
 11
-1.1486954643
 21
3.5046746373
 31
0.0
  0
LINE
  5
BCB
  8
0
  6
HIDDEN
 62
     7
 10
-0.2261954643
 20
3.5046746373
 30
0.0
 11
-0.2261954643
 21
0.8046746373
 31
0.0
  0
LINE
  5
BCC
  8
0
  6
HIDDEN
 62
     7
 10
-0.8761954643
 20
3.5046746373
 30
0.0
 11
-0.8761954643
 21
0.8046746373
 31
0.0
  0
LINE
  5
BCD
  8
0
  6
HIDDEN
 62
     7
 10
-1.5286954643
 20
3.5046746373
 30
0.0
 11
-1.5286954643
 21
0.8046746373
 31
0.0
  0
LINE
  5
BCE
  8
0
  6
HIDDEN
 62
     7
 10
-3.7886954643
 20
2.7046746373
 30
0.0
 11
-3.4886954643
 21
2.7046746373
 31
0.0
  0
LINE
  5
BCF
  8
0
  6
HIDDEN
 62
     7
 10
3.7113045357
 20
2.8046746373
 30
0.0
 11
3.4113045357
 21
2.8046746373
 31
0.0
  0
LINE
  5
BD0
  8
0
  6
HIDDEN
 62
     7
 10
3.4113045357
 20
2.7046746373
 30
0.0
 11
3.7113045357
 21
2.7046746373
 31
0.0
  0
LINE
  5
BD1
  8
0
  6
HIDDEN
 62
     7
 10
3.7113045357
 20
1.6046746373
 30
0.0
 11
3.4113045357
 21
1.6046746373
 31
0.0
  0
LINE
  5
BD2
  8
0
  6
HIDDEN
 62
     7
 10
-3.4886954643
 20
1.6046746373
 30
0.0
 11
-3.7886954643
 21
1.6046746373
 31
0.0
  0
LINE
  5
BD3
  8
0
  6
HIDDEN
 62
     7
 10
-3.7886954643
 20
1.5046746373
 30
0.0
 11
-3.4886954643
 21
1.5046746373
 31
0.0
  0
LINE
  5
BD4
  8
0
  6
HIDDEN
 62
     7
 10
3.4113045357
 20
1.5046746373
 30
0.0
 11
3.7113045357
 21
1.5046746373
 31
0.0
  0
LINE
  5
BD5
  8
0
  6
HIDDEN
 62
     7
 10
-3.4886954643
 20
2.8046746373
 30
0.0
 11
-3.7886954643
 21
2.8046746373
 31
0.0
  0
LINE
  5
BD6
  8
0
  6
HIDDEN
 62
     7
 10
1.0738045357
 20
0.8346746373
 30
0.0
 11
1.4488045357
 21
0.8346746373
 31
0.0
  0
LINE
  5
BD7
  8
0
  6
HIDDEN
 62
     7
 10
0.4213045357
 20
0.8346746373
 30
0.0
 11
0.7988045357
 21
0.8346746373
 31
0.0
  0
LINE
  5
BD8
  8
0
  6
HIDDEN
 62
     7
 10
-0.2261954643
 20
0.8346746373
 30
0.0
 11
0.1488045357
 21
0.8346746373
 31
0.0
  0
LINE
  5
BD9
  8
0
  6
HIDDEN
 62
     7
 10
-0.8761954643
 20
0.8346746373
 30
0.0
 11
-0.5011954643
 21
0.8346746373
 31
0.0
  0
LINE
  5
BDA
  8
0
  6
HIDDEN
 62
     7
 10
-1.5286954643
 20
0.8346746373
 30
0.0
 11
-1.1486954643
 21
0.8346746373
 31
0.0
  0
LINE
  5
BDB
  8
0
  6
HIDDEN
 62
     7
 10
1.0738045357
 20
1.2009023997
 30
0.0
 11
1.4488045357
 21
1.2009023997
 31
0.0
  0
LINE
  5
BDC
  8
0
  6
HIDDEN
 62
     7
 10
0.4213045357
 20
1.2009023997
 30
0.0
 11
0.7988045357
 21
1.2009023997
 31
0.0
  0
LINE
  5
BDD
  8
0
  6
HIDDEN
 62
     7
 10
-0.2261954643
 20
1.2009023997
 30
0.0
 11
0.1488045357
 21
1.2009023997
 31
0.0
  0
LINE
  5
BDE
  8
0
  6
HIDDEN
 62
     7
 10
-0.8761954643
 20
1.2009023997
 30
0.0
 11
-0.5011954643
 21
1.2009023997
 31
0.0
  0
LINE
  5
BDF
  8
0
  6
HIDDEN
 62
     7
 10
-1.5286954643
 20
1.2009023997
 30
0.0
 11
-1.1486954643
 21
1.2009023997
 31
0.0
  0
LINE
  5
BE0
  8
0
  6
HIDDEN
 62
     7
 10
-1.7636954643
 20
1.0046746373
 30
0.0
 11
1.6863045357
 21
1.0046746373
 31
0.0
  0
LINE
  5
BE1
  8
0
  6
HIDDEN
 62
     7
 10
-2.5386954643
 20
5.0046746373
 30
0.0
 11
-2.5386954643
 21
4.7046746373
 31
0.0
  0
LINE
  5
BE2
  8
0
  6
HIDDEN
 62
     7
 10
2.4613045357
 20
4.7046746373
 30
0.0
 11
2.4613045357
 21
5.0046746373
 31
0.0
  0
LINE
  5
BE3
  8
0
  6
HIDDEN
 62
     7
 10
-1.5286954643
 20
1.4009024032
 30
0.0
 11
-1.1486954643
 21
1.4009024032
 31
0.0
  0
LINE
  5
BE4
  8
0
  6
HIDDEN
 62
     7
 10
1.0738045357
 20
1.4009024032
 30
0.0
 11
1.4488045357
 21
1.4009024032
 31
0.0
  0
LINE
  5
BE5
  8
0
  6
HIDDEN
 62
     7
 10
-0.2261954643
 20
1.4009024032
 30
0.0
 11
0.1488045357
 21
1.4009024032
 31
0.0
  0
LINE
  5
BE6
  8
0
  6
HIDDEN
 62
     7
 10
0.4213045357
 20
1.4009024032
 30
0.0
 11
0.7988045357
 21
1.4009024032
 31
0.0
  0
LINE
  5
BE7
  8
0
  6
HIDDEN
 62
     7
 10
-0.8761954643
 20
1.4009024032
 30
0.0
 11
-0.5011954643
 21
1.4009024032
 31
0.0
  0
LINE
  5
BE8
  8
0
  6
HIDDEN
 62
     7
 10
-3.3222488549
 20
4.7046746373
 30
0.0
 11
-3.3222488549
 21
3.6546746373
 31
0.0
  0
LINE
  5
BE9
  8
0
  6
HIDDEN
 62
     7
 10
-3.2161828378
 20
3.5046746373
 30
0.0
 11
-3.3222488549
 21
3.6546746373
 31
0.0
  0
LINE
  5
BEA
  8
0
  6
HIDDEN
 62
     7
 10
3.2448579263
 20
3.6546746373
 30
0.0
 11
3.2448579263
 21
4.7046746373
 31
0.0
  0
LINE
  5
BEB
  8
0
  6
HIDDEN
 62
     7
 10
3.1387919091
 20
3.5046746373
 30
0.0
 11
3.2448579264
 21
3.6546746373
 31
0.0
  0
LINE
  5
BEC
  8
0
  6
HIDDEN
 62
     7
 10
3.338081231
 20
4.7046746373
 30
0.0
 11
3.338081231
 21
0.1546746373
 31
0.0
  0
LINE
  5
BED
  8
0
  6
HIDDEN
 62
     7
 10
3.4441472481
 20
0.0046746373
 30
0.0
 11
3.338081231
 21
0.1546746373
 31
0.0
  0
LINE
  5
BEE
  8
0
  6
HIDDEN
 62
     7
 10
-3.4154721596
 20
0.1546746373
 30
0.0
 11
-3.4154721596
 21
4.7046746373
 31
0.0
  0
LINE
  5
BEF
  8
0
  6
HIDDEN
 62
     7
 10
-3.4154721596
 20
0.1546746374
 30
0.0
 11
-3.5215381768
 21
0.0046746373
 31
0.0
  0
LINE
  5
BF0
  8
0
  6
HIDDEN
 62
     7
 10
3.5502132653
 20
0.0046746373
 30
0.0
 11
3.5502132653
 21
4.7046746373
 31
0.0
  0
LINE
  5
BF1
  8
0
  6
HIDDEN
 62
     7
 10
-3.627604194
 20
4.7046746373
 30
0.0
 11
-3.627604194
 21
0.0046746373
 31
0.0
  0
LINE
  5
BF2
  8
0
  6
HIDDEN
 62
     7
 10
-2.917984731
 20
0.0046746373
 30
0.0
 11
-2.8119187138
 21
0.1546746373
 31
0.0
  0
LINE
  5
BF3
  8
0
  6
HIDDEN
 62
     7
 10
2.7345277851
 20
0.1546746373
 30
0.0
 11
2.8405938024
 21
0.0046746373
 31
0.0
  0
LINE
  5
BF4
  8
0
  6
HIDDEN
 62
     7
 10
-2.0386954643
 20
5.0046746373
 30
0.0
 11
-2.0386954643
 21
4.7046746373
 31
0.0
  0
LINE
  5
BF5
  8
0
  6
HIDDEN
 62
     7
 10
1.9613045357
 20
4.7046746373
 30
0.0
 11
1.9613045357
 21
5.0046746373
 31
0.0
  0
LINE
  5
BF6
  8
0
  6
HIDDEN
 62
     7
 10
1.5863045357
 20
4.0546746373
 30
0.0
 11
1.5863045357
 21
3.9546746373
 31
0.0
  0
LINE
  5
BF7
  8
0
  6
HIDDEN
 62
     7
 10
1.6913045357
 20
4.5939483803
 30
0.0
 11
1.2613045357
 21
4.5939483803
 31
0.0
  0
LINE
  5
BF8
  8
0
  6
HIDDEN
 62
     7
 10
-1.3086954643
 20
4.5846746373
 30
0.0
 11
-1.3386954643
 21
4.5939483803
 31
0.0
  0
LINE
  5
BF9
  8
0
  6
HIDDEN
 62
     7
 10
-1.3386954643
 20
4.5939483803
 30
0.0
 11
-1.3386954643
 21
3.9546746373
 31
0.0
  0
LINE
  5
BFA
  8
0
  6
HIDDEN
 62
     7
 10
-1.3386954643
 20
4.5939483803
 30
0.0
 11
-1.7686954643
 21
4.5939483803
 31
0.0
  0
LINE
  5
BFB
  8
0
  6
HIDDEN
 62
     7
 10
1.2613045357
 20
3.9546746373
 30
0.0
 11
1.2613045357
 21
4.5939483803
 31
0.0
  0
LINE
  5
BFC
  8
0
  6
HIDDEN
 62
     7
 10
1.2613045357
 20
4.5939483803
 30
0.0
 11
1.2313045357
 21
4.5846746373
 31
0.0
  0
LINE
  5
BFD
  8
0
  6
HIDDEN
 62
     7
 10
-1.6636954643
 20
3.9546746373
 30
0.0
 11
-1.6636954643
 21
4.0546746373
 31
0.0
  0
LINE
  5
BFE
  8
0
  6
HIDDEN
 62
     7
 10
1.8863045357
 20
3.9546746373
 30
0.0
 11
1.8863045357
 21
4.0546746373
 31
0.0
  0
LINE
  5
BFF
  8
0
  6
HIDDEN
 62
     7
 10
-2.3186954643
 20
3.9546746373
 30
0.0
 11
-1.3086954643
 21
3.9546746373
 31
0.0
  0
LINE
  5
C00
  8
0
  6
HIDDEN
 62
     7
 10
1.2313045357
 20
3.9546746373
 30
0.0
 11
2.2413045357
 21
3.9546746373
 31
0.0
  0
LINE
  5
C01
  8
0
  6
HIDDEN
 62
     7
 10
-2.2886954643
 20
3.9546746373
 30
0.0
 11
-2.2886954643
 21
4.7046746373
 31
0.0
  0
LINE
  5
C02
  8
0
  6
HIDDEN
 62
     7
 10
-1.9636954643
 20
4.0546746373
 30
0.0
 11
-1.9636954643
 21
3.9546746373
 31
0.0
  0
LINE
  5
C03
  8
0
  6
HIDDEN
 62
     7
 10
2.2113045357
 20
4.7046746373
 30
0.0
 11
2.2113045357
 21
3.9546746373
 31
0.0
  0
LINE
  5
C04
  8
0
  6
HIDDEN
 62
     7
 10
2.1091725013
 20
4.7046746373
 30
0.0
 11
2.1091725013
 21
4.0046746373
 31
0.0
  0
LINE
  5
C05
  8
0
  6
HIDDEN
 62
     7
 10
2.2223187233
 20
4.0046746373
 30
0.0
 11
1.6927763982
 21
4.0046746373
 31
0.0
  0
LINE
  5
C06
  8
0
  6
HIDDEN
 62
     7
 10
1.7559690872
 20
4.1046746373
 30
0.0
 11
1.7559690872
 21
4.4046746373
 31
0.0
  0
LINE
  5
C07
  8
0
  6
HIDDEN
 62
     7
 10
1.5438370529
 20
4.1046746373
 30
0.0
 11
1.7559690872
 21
4.1046746373
 31
0.0
  0
LINE
  5
C08
  8
0
  6
HIDDEN
 62
     7
 10
1.5438370529
 20
4.1046746373
 30
0.0
 11
1.5438370529
 21
4.4046746373
 31
0.0
  0
LINE
  5
C09
  8
0
  6
HIDDEN
 62
     7
 10
1.5438370529
 20
4.4046746373
 30
0.0
 11
1.7559690872
 21
4.4046746373
 31
0.0
  0
LINE
  5
C0A
  8
0
  6
HIDDEN
 62
     7
 10
-1.8333760891
 20
4.4046746373
 30
0.0
 11
-1.6212440548
 21
4.4046746373
 31
0.0
  0
LINE
  5
C0B
  8
0
  6
HIDDEN
 62
     7
 10
-1.8333760891
 20
4.1046746373
 30
0.0
 11
-1.8333760891
 21
4.4046746373
 31
0.0
  0
LINE
  5
C0C
  8
0
  6
HIDDEN
 62
     7
 10
-1.7701673269
 20
4.0046746373
 30
0.0
 11
-2.299709652
 21
4.0046746373
 31
0.0
  0
LINE
  5
C0D
  8
0
  6
HIDDEN
 62
     7
 10
-2.18656343
 20
4.0046746373
 30
0.0
 11
-2.18656343
 21
4.7046746373
 31
0.0
  0
LINE
  5
C0E
  8
0
  6
HIDDEN
 62
     7
 10
-1.6212440548
 20
4.4046746373
 30
0.0
 11
-1.6212440548
 21
4.1046746373
 31
0.0
  0
LINE
  5
C0F
  8
0
  6
HIDDEN
 62
     7
 10
-1.6212440548
 20
4.1046746373
 30
0.0
 11
-1.8333760891
 21
4.1046746373
 31
0.0
  0
LINE
  5
C10
  8
0
  6
HIDDEN
 62
     7
 10
2.7961825473
 20
3.6546746372
 30
0.0
 11
2.6901165301
 21
3.5046746373
 31
0.0
  0
LINE
  5
C11
  8
0
  6
HIDDEN
 62
     7
 10
-2.7575074589
 20
3.5046746373
 30
0.0
 11
-2.863573476
 21
3.6546746373
 31
0.0
  0
LINE
  5
C12
  8
0
  6
HIDDEN
 62
     7
 10
-0.4386954643
 20
3.5218319248
 30
0.0
 11
-0.4386954643
 21
4.1046746373
 31
0.0
  0
LINE
  5
C13
  8
0
  6
HIDDEN
 62
     7
 10
-0.4386954643
 20
3.6046746373
 30
0.0
 11
-0.5386954643
 21
3.5046746373
 31
0.0
  0
LINE
  5
C14
  8
0
  6
HIDDEN
 62
     7
 10
0.4613045357
 20
3.5046746373
 30
0.0
 11
0.3613045357
 21
3.6046746373
 31
0.0
  0
LINE
  5
C15
  8
0
  6
HIDDEN
 62
     7
 10
0.3613045357
 20
4.1046746373
 30
0.0
 11
-0.4386954643
 21
4.1046746373
 31
0.0
  0
LINE
  5
C16
  8
0
  6
HIDDEN
 62
     7
 10
0.3613045357
 20
4.1046746373
 30
0.0
 11
0.3613045357
 21
3.5218319248
 31
0.0
  0
LINE
  5
C17
  8
0
  6
HIDDEN
 62
     7
 10
-1.2386954643
 20
5.0046746373
 30
0.0
 11
-1.2386954643
 21
3.8046746373
 31
0.0
  0
LINE
  5
C18
  8
0
  6
HIDDEN
 62
     7
 10
1.1613045357
 20
3.8046746373
 30
0.0
 11
1.1613045357
 21
5.0046746373
 31
0.0
  0
LINE
  5
C19
  8
0
  6
HIDDEN
 62
     7
 10
0.3613045357
 20
3.8046746373
 30
0.0
 11
-0.4386954643
 21
3.8046746373
 31
0.0
  0
LINE
  5
C1A
  8
0
  6
HIDDEN
 62
     7
 10
-0.4386954643
 20
3.5218319248
 30
0.0
 11
0.3613045357
 21
3.5218319248
 31
0.0
  0
LINE
  5
C1B
  8
0
  6
HIDDEN
 62
     7
 10
-2.5100200854
 20
4.7046746373
 30
0.0
 11
-2.5100200854
 21
3.5046746373
 31
0.0
  0
LINE
  5
C1C
  8
0
  6
HIDDEN
 62
     7
 10
2.4426291567
 20
3.5046746373
 30
0.0
 11
2.4426291567
 21
4.7046746373
 31
0.0
  0
LINE
  5
C1D
  8
0
  6
HIDDEN
 62
     7
 10
2.7961825473
 20
4.7046746373
 30
0.0
 11
2.7961825473
 21
3.6546746373
 31
0.0
  0
LINE
  5
C1E
  8
0
  6
HIDDEN
 62
     7
 10
-2.863573476
 20
3.6546746373
 30
0.0
 11
-2.863573476
 21
4.7046746373
 31
0.0
  0
LINE
  5
C1F
  8
0
  6
HIDDEN
 62
     7
 10
-1.7201673269
 20
4.0546746373
 30
0.0
 11
-1.7701673269
 21
4.0046746373
 31
0.0
  0
LINE
  5
C20
  8
0
  6
HIDDEN
 62
     7
 10
1.6927763982
 20
4.0046746373
 30
0.0
 11
1.6427763982
 21
4.0546746373
 31
0.0
  0
LINE
  5
C21
  8
0
  6
HIDDEN
 62
     7
 10
-1.2386954643
 20
4.8046746373
 30
0.0
 11
1.1613045357
 21
4.8046746373
 31
0.0
  0
LINE
  5
C22
  8
0
  6
HIDDEN
 62
     7
 10
2.5577510898
 20
4.7046746373
 30
0.0
 11
2.5577510898
 21
0.0046746373
 31
0.0
  0
LINE
  5
C23
  8
0
  6
HIDDEN
 62
     7
 10
-2.6351420185
 20
0.0046746373
 30
0.0
 11
-2.6351420185
 21
4.7046746373
 31
0.0
  0
LINE
  5
C24
  8
0
  6
HIDDEN
 62
     7
 10
-2.3186954643
 20
3.9546746373
 30
0.0
 11
-2.3186954643
 21
4.7046746373
 31
0.0
  0
LINE
  5
C25
  8
0
  6
HIDDEN
 62
     7
 10
2.2413045357
 20
4.7046746373
 30
0.0
 11
2.2413045357
 21
3.9546746373
 31
0.0
  0
LINE
  5
C26
  8
0
  6
HIDDEN
 62
     7
 10
0.3613045357
 20
3.6546746373
 30
0.0
 11
0.9313045357
 21
3.6546746373
 31
0.0
  0
LINE
  5
C27
  8
0
  6
HIDDEN
 62
     7
 10
-1.0086954643
 20
3.6546746373
 30
0.0
 11
-0.4386954643
 21
3.6546746373
 31
0.0
  0
LINE
  5
C28
  8
0
  6
HIDDEN
 62
     7
 10
0.9313045357
 20
4.5846746373
 30
0.0
 11
-1.0086954643
 21
4.5846746373
 31
0.0
  0
LINE
  5
C29
  8
0
  6
HIDDEN
 62
     7
 10
1.2313045357
 20
4.5846746373
 30
0.0
 11
1.2313045357
 21
3.6546746373
 31
0.0
  0
LINE
  5
C2A
  8
0
  6
HIDDEN
 62
     7
 10
-1.3086954643
 20
3.6546746373
 30
0.0
 11
-1.3086954643
 21
4.5846746373
 31
0.0
  0
LINE
  5
C2B
  8
0
  6
HIDDEN
 62
     7
 10
-1.0086954643
 20
4.5846746373
 30
0.0
 11
-1.0086954643
 21
3.6546746373
 31
0.0
  0
LINE
  5
C2C
  8
0
  6
HIDDEN
 62
     7
 10
0.9313045357
 20
3.6546746373
 30
0.0
 11
0.9313045357
 21
4.5846746373
 31
0.0
  0
LINE
  5
C2D
  8
0
  6
HIDDEN
 62
     7
 10
2.0384618232
 20
4.0046746373
 30
0.0
 11
2.0384618232
 21
4.7046746373
 31
0.0
  0
LINE
  5
C2E
  8
0
  6
HIDDEN
 62
     7
 10
-2.1158527519
 20
4.7046746373
 30
0.0
 11
-2.1158527519
 21
4.0046746373
 31
0.0
  0
LINE
  5
C2F
  8
0
  6
HIDDEN
 62
     7
 10
-1.2386954643
 20
4.6046746373
 30
0.0
 11
1.1613045357
 21
4.6046746373
 31
0.0
  0
LINE
  5
C30
  8
0
  6
HIDDEN
 62
     7
 10
1.2613045357
 20
3.7046746373
 30
0.0
 11
2.2213045357
 21
3.7046746373
 31
0.0
  0
LINE
  5
C31
  8
0
  6
HIDDEN
 62
     7
 10
2.3213045357
 20
3.8046746373
 30
0.0
 11
2.3213045357
 21
4.7046746373
 31
0.0
  0
LINE
  5
C32
  8
0
  6
HIDDEN
 62
     7
 10
-2.3986954643
 20
4.7046746373
 30
0.0
 11
-2.3986954643
 21
3.8046746373
 31
0.0
  0
LINE
  5
C33
  8
0
  6
HIDDEN
 62
     7
 10
-2.2986954643
 20
3.7046746373
 30
0.0
 11
-1.3386954643
 21
3.7046746373
 31
0.0
  0
LINE
  5
C34
  8
0
  6
HIDDEN
 62
     7
 10
0.9833249459
 20
4.5840042462
 30
0.0
 11
0.9833249459
 21
3.6846746373
 31
0.0
  0
LINE
  5
C35
  8
0
  6
HIDDEN
 62
     7
 10
-1.0607158746
 20
3.6846746373
 30
0.0
 11
-1.0607158746
 21
4.5840042462
 31
0.0
  0
LINE
  5
C36
  8
0
  6
HIDDEN
 62
     7
 10
-1.256675054
 20
3.7474675372
 30
0.0
 11
-1.256675054
 21
3.6846746373
 31
0.0
  0
LINE
  5
C37
  8
0
  6
HIDDEN
 62
     7
 10
1.1792841254
 20
3.6846746373
 30
0.0
 11
1.1792841254
 21
3.7474675372
 31
0.0
  0
LINE
  5
C38
  8
0
  6
HIDDEN
 62
     7
 10
1.1792841254
 20
3.6846746373
 30
0.0
 11
0.9833249459
 21
3.6846746373
 31
0.0
  0
LINE
  5
C39
  8
0
  6
HIDDEN
 62
     7
 10
-1.0607158746
 20
3.6846746373
 30
0.0
 11
-1.256675054
 21
3.6846746373
 31
0.0
  0
LINE
  5
C3A
  8
0
  6
HIDDEN
 62
     7
 10
-1.0607158746
 20
4.5840042462
 30
0.0
 11
-1.2386954643
 21
4.5840042462
 31
0.0
  0
LINE
  5
C3B
  8
0
  6
HIDDEN
 62
     7
 10
1.1613045357
 20
4.5840042462
 30
0.0
 11
0.9833249459
 21
4.5840042462
 31
0.0
  0
LINE
  5
C3C
  8
0
  6
HIDDEN
 62
     7
 10
-0.4386954643
 20
3.6046746373
 30
0.0
 11
0.3613045357
 21
3.6046746373
 31
0.0
  0
LINE
  5
C3D
  8
0
  6
HIDDEN
 62
     7
 10
1.8970404669
 20
4.0046746373
 30
0.0
 11
1.8970404669
 21
4.7046746373
 31
0.0
  0
LINE
  5
C3E
  8
0
  6
HIDDEN
 62
     7
 10
-1.9744313956
 20
4.7046746373
 30
0.0
 11
-1.9744313956
 21
4.0046746373
 31
0.0
  0
LINE
  5
C3F
  8
0
  6
HIDDEN
 62
     7
 10
2.9466598195
 20
4.7046746373
 30
0.0
 11
2.9466598195
 21
0.0046746373
 31
0.0
  0
LINE
  5
C40
  8
0
  6
HIDDEN
 62
     7
 10
-3.0240507482
 20
0.0046746373
 30
0.0
 11
-3.0240507482
 21
4.7046746373
 31
0.0
  0
ARC
  5
1023
  8
0
  6
CONTINUOUS
 62
     7
 10
1.8863045357
 20
1.3546746373
 30
0.0
 40
0.099999999999963
 50
270.0
 51
0.0
  0
ARC
  5
1024
  8
0
  6
CONTINUOUS
 62
     7
 10
1.8363045357
 20
1.1546746373
 30
0.0
 40
0.1000000000000028
 50
90.0
 51
180.0
  0
ARC
  5
1025
  8
0
  6
CONTINUOUS
 62
     7
 10
1.8363045357
 20
1.1046746373
 30
0.0
 40
0.0999999999999888
 50
180.0
 51
270.0
  0
ARC
  5
1026
  8
0
  6
CONTINUOUS
 62
     7
 10
2.8363045357
 20
1.1046746373
 30
0.0
 40
0.1000000000000028
 50
270.0
 51
0.0
  0
ARC
  5
1027
  8
0
  6
CONTINUOUS
 62
     7
 10
-2.9136954643
 20
1.1046746373
 30
0.0
 40
0.0999999999999956
 50
180.0
 51
270.0
  0
ARC
  5
1028
  8
0
  6
CONTINUOUS
 62
     7
 10
-1.9136954643
 20
1.1046746373
 30
0.0
 40
0.1000000000000063
 50
270.0
 51
360.0
  0
ARC
  5
1029
  8
0
  6
CONTINUOUS
 62
     7
 10
-1.9136954643
 20
1.1546746373
 30
0.0
 40
0.0999999999999961
 50
360.0
 51
90.0
  0
ARC
  5
102A
  8
0
  6
CONTINUOUS
 62
     7
 10
-1.9636954643
 20
1.3546746373
 30
0.0
 40
0.1000000000000121
 50
180.0
 51
270.0
  0
ARC
  5
102B
  8
0
  6
CONTINUOUS
 62
     7
 10
0.2463045357
 20
1.0094118429
 30
0.0
 40
0.1699999999999964
 50
239.9999999999
 51
0.0
  0
ARC
  5
102C
  8
0
  6
CONTINUOUS
 62
     7
 10
-0.3536954643
 20
0.9285828052
 30
0.0
 40
0.199999999999989
 50
59.9999999999
 51
180.0
  0
ARC
  5
102D
  8
0
  6
CONTINUOUS
 62
     7
 10
-0.3536954643
 20
0.9285828052
 30
0.0
 40
0.1699999999999988
 50
59.9999999999
 51
180.0
  0
ARC
  5
102E
  8
0
  6
CONTINUOUS
 62
     7
 10
0.2463045357
 20
1.0094118429
 30
0.0
 40
0.2000000000000017
 50
239.9999999999
 51
0.0
  0
ARC
  5
102F
  8
0
  6
HIDDEN
 62
     7
 10
1.6474044276
 20
3.6046746373
 30
0.0
 40
0.1000000000000028
 50
270.0
 51
0.0
  0
ARC
  5
1030
  8
0
  6
HIDDEN
 62
     7
 10
3.0363045357
 20
3.0046746373
 30
0.0
 40
0.1000000000000099
 50
180.0
 51
270.0
  0
ARC
  5
1031
  8
0
  6
HIDDEN
 62
     7
 10
2.8363045357
 20
3.1046746373
 30
0.0
 40
0.1000000000000028
 50
0.0
 51
90.0
  0
ARC
  5
1032
  8
0
  6
HIDDEN
 62
     7
 10
2.0863045357
 20
3.1046746373
 30
0.0
 40
0.1000000000000028
 50
90.0
 51
180.0
  0
ARC
  5
1033
  8
0
  6
HIDDEN
 62
     7
 10
3.0363045357
 20
1.3046746373
 30
0.0
 40
0.1000000000000023
 50
90.0
 51
180.0
  0
ARC
  5
1034
  8
0
  6
HIDDEN
 62
     7
 10
-3.1136954643
 20
1.3046746373
 30
0.0
 40
0.0999999999999788
 50
360.0
 51
90.0
  0
ARC
  5
1035
  8
0
  6
HIDDEN
 62
     7
 10
-2.1636954643
 20
3.1046746373
 30
0.0
 40
0.0999999999999952
 50
360.0
 51
90.0
  0
ARC
  5
1036
  8
0
  6
HIDDEN
 62
     7
 10
-2.9136954643
 20
3.1046746373
 30
0.0
 40
0.1000000000000054
 50
90.0
 51
180.0
  0
ARC
  5
1037
  8
0
  6
HIDDEN
 62
     7
 10
-3.1136954643
 20
3.0046746373
 30
0.0
 40
0.0999999999999956
 50
270.0
 51
0.0
  0
ARC
  5
1038
  8
0
  6
HIDDEN
 62
     7
 10
-1.7247953563
 20
3.6046746373
 30
0.0
 40
0.0999999999999961
 50
180.0
 51
270.0
  0
ARC
  5
1039
  8
0
  6
HIDDEN
 62
     7
 10
-3.5357740014
 20
3.9774405308
 30
0.0
 40
0.2543834958772916
 50
173.8541781682
 51
196.6215035282
  0
ARC
  5
103A
  8
0
  6
HIDDEN
 62
     7
 10
3.5330182884
 20
3.9705984902
 30
0.0
 40
0.181513552589876
 50
338.7037838034
 51
10.8205344984
  0
ARC
  5
103B
  8
0
  6
HIDDEN
 62
     7
 10
-2.1636954643
 20
4.3046746373
 30
0.0
 40
0.1999999999999862
 50
270.0
 51
0.0
  0
ARC
  5
103C
  8
0
  6
HIDDEN
 62
     7
 10
-2.8386954643
 20
4.3046746373
 30
0.0
 40
0.2000000000000046
 50
180.0
 51
270.0
  0
ARC
  5
103D
  8
0
  6
HIDDEN
 62
     7
 10
2.0863045357
 20
4.3046746373
 30
0.0
 40
0.1999999999999835
 50
180.0
 51
270.0
  0
ARC
  5
103E
  8
0
  6
HIDDEN
 62
     7
 10
2.7613045357
 20
4.3046746373
 30
0.0
 40
0.1999999999999842
 50
270.0
 51
0.0
  0
ARC
  5
103F
  8
0
  6
HIDDEN
 62
     7
 10
0.2463045357
 20
2.4999374317
 30
0.0
 40
0.2000000000000055
 50
0.0
 51
120.0
  0
ARC
  5
1040
  8
0
  6
HIDDEN
 62
     7
 10
-0.3536954643
 20
2.5807664694
 30
0.0
 40
0.1699999999999981
 50
180.0
 51
300.0
  0
ARC
  5
1041
  8
0
  6
HIDDEN
 62
     7
 10
-0.3536954643
 20
2.5807664694
 30
0.0
 40
0.1999999999999994
 50
180.0
 51
300.0
  0
ARC
  5
1042
  8
0
  6
HIDDEN
 62
     7
 10
0.2463045357
 20
2.4999374317
 30
0.0
 40
0.1699999999999978
 50
0.0
 51
120.0
  0
ARC
  5
1043
  8
0
  6
HIDDEN
 62
     7
 10
1.5413045357
 20
3.6546746373
 30
0.0
 40
0.1499999999999977
 50
270.0
 51
0.0
  0
ARC
  5
1044
  8
0
  6
HIDDEN
 62
     7
 10
-1.6186954643
 20
3.6546746373
 30
0.0
 40
0.1499999999999986
 50
180.0
 51
270.0
  0
ARC
  5
1045
  8
0
  6
HIDDEN
 62
     7
 10
2.2719939089
 20
3.9441051806
 30
0.0
 40
1.065103135145874
 50
357.8784025675
 51
39.7150932194
  0
ARC
  5
1046
  8
0
  6
HIDDEN
 62
     7
 10
3.3402914527
 20
4.1288784557
 30
0.0
 40
0.581769808007279
 50
98.2177586439
 51
115.339551118
  0
ARC
  5
1047
  8
0
  6
HIDDEN
 62
     7
 10
-3.4470346804
 20
4.031527893
 30
0.0
 40
0.6824841273715088
 50
65.9312508661
 51
80.5114393719
  0
ARC
  5
1048
  8
0
  6
HIDDEN
 62
     7
 10
-2.3505076745
 20
4.7946886714
 30
0.0
 40
1.560662023657788
 50
4.7776423809
 51
7.7325582816
  0
ARC
  5
1049
  8
0
  6
HIDDEN
 62
     7
 10
-2.3505076745
 20
4.9146606032
 30
0.0
 40
1.560662023657654
 50
352.2674417184
 51
355.2223576191
  0
ARC
  5
104A
  8
0
  6
HIDDEN
 62
     7
 10
2.2731167459
 20
4.7946886714
 30
0.0
 40
1.560662023657895
 50
172.2674417184
 51
175.2223576191
  0
ARC
  5
104B
  8
0
  6
HIDDEN
 62
     7
 10
2.2731167459
 20
4.9146606032
 30
0.0
 40
1.560662023657778
 50
184.7776423809
 51
187.7325582816
  0
ARC
  5
104C
  8
0
  6
HIDDEN
 62
     7
 10
-1.5636954643
 20
1.0046746373
 30
0.0
 40
0.1999999999999826
 50
180.0
 51
270.0
  0
ARC
  5
104D
  8
0
  6
HIDDEN
 62
     7
 10
1.4863045357
 20
1.0046746373
 30
0.0
 40
0.2000000000000057
 50
270.0
 51
360.0
  0
ARC
  5
104E
  8
0
  6
HIDDEN
 62
     7
 10
1.8890733827
 20
4.1039962743
 30
0.0
 40
0.1331060240788371
 50
179.7079958988
 51
201.749170345
  0
ARC
  5
104F
  8
0
  6
HIDDEN
 62
     7
 10
2.0211341302
 20
4.4421746373
 30
0.0
 40
0.2678035660698092
 50
101.4217536587
 51
188.0494669756
  0
ARC
  5
1050
  8
0
  6
HIDDEN
 62
     7
 10
1.6507699429
 20
4.0985346485
 30
0.0
 40
0.1071090212142971
 50
176.713737092
 51
232.9962562966
  0
ARC
  5
1051
  8
0
  6
HIDDEN
 62
     7
 10
1.8090020958
 20
4.4421746373
 30
0.0
 40
0.2678035660697811
 50
101.4217536587
 51
188.0494669756
  0
ARC
  5
1052
  8
0
  6
HIDDEN
 62
     7
 10
-1.8864090977
 20
4.4421746373
 30
0.0
 40
0.2678035660743209
 50
351.9505330253
 51
78.5782463401
  0
ARC
  5
1053
  8
0
  6
HIDDEN
 62
     7
 10
-2.0985411321
 20
4.4421746373
 30
0.0
 40
0.2678035660719936
 50
351.9505330247
 51
78.5782463406
  0
ARC
  5
1054
  8
0
  6
HIDDEN
 62
     7
 10
-1.9664803846
 20
4.1039962743
 30
0.0
 40
0.1331060240803974
 50
338.250829656
 51
0.2920041014
  0
ARC
  5
1055
  8
0
  6
HIDDEN
 62
     7
 10
-1.7281885714
 20
4.0985379716
 30
0.0
 40
0.1071204382378948
 50
307.0176950698
 51
3.2841319221
  0
ARC
  5
1056
  8
0
  6
HIDDEN
 62
     7
 10
-0.2386954643
 20
3.9046746373
 30
0.0
 40
0.2000000000000106
 50
90.0
 51
180.0
  0
ARC
  5
1057
  8
0
  6
HIDDEN
 62
     7
 10
0.1613045357
 20
3.9046746373
 30
0.0
 40
0.1999999999999371
 50
360.0
 51
90.0
  0
ARC
  5
1058
  8
0
  6
HIDDEN
 62
     7
 10
1.0813045357
 20
3.4546746373
 30
0.0
 40
0.2499999999999624
 50
53.1301023542
 51
66.9260819283
  0
ARC
  5
1059
  8
0
  6
HIDDEN
 62
     7
 10
1.1058821476
 20
12.2698646041
 30
0.0
 40
7.686213346111252
 50
270.4131418559
 51
270.9349847737
  0
ARC
  5
105A
  8
0
  6
HIDDEN
 62
     7
 10
-1.1586954643
 20
3.4546746373
 30
0.0
 40
0.2499999999999707
 50
113.0739180658
 51
126.8698976459
  0
ARC
  5
105B
  8
0
  6
HIDDEN
 62
     7
 10
-1.1832730762
 20
12.2698646045
 30
0.0
 40
7.686213346474441
 50
269.0650152264
 51
269.5868581442
  0
ARC
  5
105C
  8
0
  6
HIDDEN
 62
     7
 10
-1.1586954643
 20
3.4546746373
 30
0.0
 40
0.2500000000001019
 50
53.1301023542
 51
66.9260819339
  0
ARC
  5
105D
  8
0
  6
HIDDEN
 62
     7
 10
-1.1279672117
 20
11.8211657774
 30
0.0
 40
7.237473991038265
 50
270.532405814
 51
270.9442627504
  0
ARC
  5
105E
  8
0
  6
HIDDEN
 62
     7
 10
1.0813045357
 20
3.4546746373
 30
0.0
 40
0.2500000000000122
 50
113.0739180714
 51
126.8698976458
  0
ARC
  5
105F
  8
0
  6
HIDDEN
 62
     7
 10
1.050576283
 20
11.8211657773
 30
0.0
 40
7.237473990870826
 50
269.0557372496
 51
269.4675941859
  0
ARC
  5
1060
  8
0
  6
HIDDEN
 62
     7
 10
2.2215189504
 20
3.9048920204
 30
0.0
 40
0.0997858220123904
 50
359.8751812331
 51
89.540775446
  0
ARC
  5
1061
  8
0
  6
HIDDEN
 62
     7
 10
-2.2988044111
 20
3.904787622
 30
0.0
 40
0.0998911171224069
 50
90.5192372614
 51
180.06480606
  0
ARC
  5
1062
  8
0
  6
HIDDEN
 62
     7
 10
1.2613045357
 20
3.8046746373
 30
0.0
 40
0.0999999999999663
 50
179.9999999894
 51
270.0000000004
  0
ARC
  5
1063
  8
0
  6
HIDDEN
 62
     7
 10
-1.3386954641
 20
3.8046746372
 30
0.0
 40
0.1000000000000423
 50
270.0
 51
0.000000006
  0
ARC
  5
1064
  8
0
  6
HIDDEN
 62
     7
 10
2.2213045357
 20
3.8046746373
 30
0.0
 40
0.1000000000000019
 50
270.0
 51
360.0
  0
ARC
  5
1065
  8
0
  6
HIDDEN
 62
     7
 10
-2.2986954643
 20
3.8046746373
 30
0.0
 40
0.0999999999987802
 50
179.9999999993
 51
270.0000000018
  0
ARC
  5
1066
  8
0
  6
HIDDEN
 62
     7
 10
-2.2705839751
 20
3.874685989
 30
0.0
 40
0.1315745899202674
 50
81.0950308887
 51
166.8252806572
  0
ARC
  5
1067
  8
0
  6
HIDDEN
 62
     7
 10
2.1927282101
 20
3.8739958061
 30
0.0
 40
0.1321857109666032
 50
13.420083051
 51
98.6596054018
  0
ENDSEC
  0
EOF
